<svg width="512" height="512" viewBox="0 0 512 512" fill="none" xmlns="http://www.w3.org/2000/svg">
<g transform="translate(67, 170)">
<g clip-path="url(#clip0)">
<path d="M192.2 37.9C192.2 37.5 192 37 191.6 36.7C159.8 14 117.4 0 70.8 0C65.7 0 60.7 0.2 55.7 0.5C55.2 0.5 54.7 0.7 54.4 1C42 11.4 31.4 23.1 23.1 35.9C22.3 37.1 23.7 38.4 25.4 38.1C39.9 35.1 55.1 33.5 70.7 33.5C116 33.5 157.4 46.7 188.8 68.4" fill="#32AF7D"/>
<path d="M192.5 82.1C160.8 59.4 118.4 45.5 72 45.5C52.2 45.5 33.1 48.1 15.3 52.7C14.5 52.9 13.8 53.4 13.6 54.1C9.99998 62.7 7.39998 71.6 5.89998 80.8C5.59998 82.4 7.59998 83.6 9.49998 83C28.9 77.3 50 74.2 72 74.2C116.8 74.2 157.6 87.1 188.9 108.3" fill="#1E976B"/>
<path d="M0 96.6C0 107.4 1.4 117.9 4.2 128C4.7 129.7 6.4 130.7 7.9 130.1C25.5 122.9 45.6 118.7 66.9 118.7C114.8 118.7 156.5 139.4 178 170C178.5 170.8 179.4 171.2 180.3 171.2H189V123.4C157.2 100.3 114.5 86.2 67.6 86.2C43.7 86.3 20.9 90 0 96.6Z" fill="#1B805B"/>
<path d="M185.5 37.9C185.5 37.5 185.7 37 186.1 36.7C218 14 260.4 0 307 0C312.1 0 317.1 0.2 322.1 0.5C322.6 0.5 323.1 0.7 323.4 1C335.9 11.3 346.4 23.1 354.7 35.9C355.5 37.1 354.1 38.4 352.4 38.1C337.9 35.1 322.7 33.5 307.1 33.5C261.8 33.5 220.4 46.7 189 68.4" fill="#32AF7D"/>
<path d="M185.3 82.1C217 59.4 259.4 45.5 305.8 45.5C325.6 45.5 344.7 48.1 362.5 52.7C363.3 52.9 364 53.4 364.2 54.1C367.8 62.7 370.4 71.6 371.9 80.8C372.2 82.4 370.2 83.6 368.3 83C348.9 77.3 327.8 74.2 305.8 74.2C261 74.2 220.2 87.1 188.9 108.3" fill="#1E976B"/>
<path d="M377.7 96.6C377.7 107.4 376.3 117.9 373.5 128C373 129.8 371.3 130.7 369.7 130.1C352.1 122.9 332 118.8 310.8 118.8C262.9 118.8 221.2 139.5 199.7 170.1C199.2 170.9 198.3 171.3 197.4 171.3H188.7V123.5C220.5 100.4 263.2 86.3 310.1 86.3C334 86.3 356.9 90 377.7 96.6Z" fill="#1B805B"/>
</g>
</g>
<defs>
<clipPath id="clip0">
<rect width="377.7" height="171.3" fill="white"/>
</clipPath>
</defs>
</svg>
