<svg width="154" height="51" viewBox="0 0 154 51" fill="none" xmlns="http://www.w3.org/2000/svg">
<g clip-path="url(#clip0_483_1114)">
<path d="M83.8398 42.2264L85.2927 29.07L89.376 29.0781L92.0955 35.4837L92.314 35.3592L95.1023 29.0741L99.2423 29.1182L100.74 42.2264H96.7089L96.1747 34.9057L92.3423 42.2344L91.8931 42.1662L88.3076 35.002L87.822 42.2264H83.8398Z" fill="white"/>
<path d="M88.9387 12.462L94.3777 18.4342L94.7177 18.6268V12.462H98.7969V25.6585H95.9317C93.9528 23.6116 91.9698 21.5647 90.0395 19.4616C89.9545 19.3693 89.9545 19.2569 89.7643 19.3011V25.6585H85.5879V12.6065L85.7336 12.462H88.9387Z" fill="white"/>
<path d="M81.2739 30.6152C85.0901 34.0589 83.3742 40.9581 78.3035 42.2746C72.8564 43.6954 67.7492 40.1233 68.7124 34.3037C69.6755 28.4841 77.2796 27.0111 81.2699 30.6112L81.2739 30.6152ZM75.758 31.8474C71.8366 32.2046 72.0794 39.8705 76.3124 39.433C79.9951 39.0517 79.8373 31.4781 75.758 31.8474Z" fill="white"/>
<path d="M82.1563 14.228C86.1182 18.2656 83.512 25.5461 77.6764 25.9515C72.4923 26.3087 68.9189 23.435 69.3681 18.097C69.878 12.0928 78.3279 10.3268 82.1522 14.228H82.1563ZM74.7464 16.0581C72.9132 17.8241 73.3786 22.6725 76.4097 22.8651C80.9098 23.1541 80.5578 14.6895 76.3611 15.2956C75.831 15.3718 75.1309 15.6889 74.7505 16.0581H74.7464Z" fill="white"/>
<path d="M141.176 14.228C145.057 10.3509 153.418 12.0607 153.96 18.097C154.486 23.9086 149.464 27.2198 144.033 25.6304C139.157 24.2016 137.704 17.6957 141.172 14.228H141.176ZM144.487 16.3551C143.115 18.1251 143.394 22.3554 146.093 22.821C151.03 23.6758 150.638 14.0995 145.98 15.3799C145.43 15.5324 144.831 15.9096 144.487 16.3551Z" fill="white"/>
<path d="M106.275 42.2264L106.288 29.1824L106.437 29.046C108.477 29.1062 110.614 28.9175 112.641 29.0259C117.441 29.2828 119.865 32.7665 118.837 37.3941C118.303 39.8022 115.907 42.2264 113.317 42.2264H106.275ZM112.249 32.2086C111.678 32.1284 110.945 32.2688 110.355 32.2086V38.9995L110.5 39.144H111.957C112.58 39.144 113.625 38.3814 114.001 37.8958C115.312 36.2021 114.616 32.5417 112.249 32.2086Z" fill="white"/>
<path d="M134.734 29.0299V37.073C134.734 37.4142 134.92 38.2369 135.082 38.558C135.887 40.1193 138.687 39.9066 139.133 38.1647C139.177 37.9921 139.295 37.3098 139.295 37.1693V29.0299H143.374V37.8436C143.374 43.8117 132.763 43.9402 130.99 39.5293C130.93 39.3808 130.65 38.5058 130.65 38.4216V29.0299H134.73H134.734Z" fill="white"/>
<path d="M115.842 12.462L117.688 15.2554C117.853 15.2675 117.922 15.1029 118.011 14.9986C118.59 14.2802 118.974 13.1684 119.63 12.462H124.146L120.067 18.7673L124.438 25.6585H119.824C119.043 24.7876 118.582 23.4631 117.878 22.5801C117.805 22.4878 117.732 22.3634 117.594 22.3795L115.506 25.6545H110.941L115.393 18.7833L111.33 12.458H115.846L115.842 12.462Z" fill="white"/>
<path d="M124.535 25.6585L129.699 12.4781L133.62 12.454L138.813 25.6585H134.442L133.701 23.5514L129.383 23.5956L128.716 25.6585H124.539H124.535ZM132.985 21.2276L131.722 16.9893L130.266 21.2276H132.985Z" fill="white"/>
<path d="M110.161 12.462V15.6407H105.304V17.3264L105.45 17.4709H109.481V20.5533H105.304V22.5761H111.132L109.432 25.6585H101.128V12.6065L101.274 12.462H110.161Z" fill="white"/>
<path d="M129.003 29.0299V32.2086H124.147V34.0388H128.323V37.1212H124.147V39.144H130.072L128.275 42.2264H119.971V29.1744L120.116 29.0299H129.003Z" fill="white"/>
<path d="M153.382 32.6902C152.807 32.4856 152.411 32.0922 151.808 31.8916C151.164 31.6788 150.274 31.5263 149.614 31.6949C148.785 31.9076 148.392 32.919 149.112 33.505C149.833 34.091 151.383 34.4161 152.269 34.998C154.879 36.7238 154.361 40.5568 151.67 41.9254C149.529 43.0131 146.814 42.4752 144.641 41.7448V38.3734C145.053 38.5099 145.389 38.831 145.786 39.0196C146.692 39.4531 149.056 40.1675 149.679 39.0838C150.594 37.4864 148.105 37.1212 147.129 36.6275C145.094 35.596 144.106 33.7378 144.956 31.5063C146.15 28.3677 150.836 28.1269 153.386 29.656V32.6902H153.382Z" fill="white"/>
<path d="M68.3002 29.1262V32.4976C67.9198 32.4534 67.6648 32.1083 67.3289 31.9678C64.4759 30.7678 61.0806 32.4775 61.1251 35.7124C61.1777 39.742 65.7709 40.5207 68.7899 39.0477L67.0861 42.0297C66.5924 42.5957 64.0672 42.5756 63.3023 42.5114C58.6565 42.1341 55.8034 38.0042 57.1875 33.5572C58.6484 28.8533 64.0429 27.9422 68.3042 29.1222L68.3002 29.1262Z" fill="white"/>
<path d="M68.2998 15.9297C67.887 15.8213 67.5714 15.5284 67.1627 15.3718C63.824 14.1156 60.4893 16.5036 61.234 20.0958C61.926 23.431 66.2076 23.736 68.7855 22.4798L66.9644 25.6585C62.0555 26.9709 56.576 24.4625 56.835 18.8636C57.094 13.2647 62.1729 11.5148 66.9603 12.2975C67.3933 12.3697 67.972 12.4299 68.2998 12.7028V15.9297Z" fill="white"/>
<path d="M134.539 8.41638V10.4874C133.013 12.2212 131.403 10.1703 129.654 10.5556C129.343 10.6238 129.14 10.985 128.809 11.0171V9.13881C128.809 9.08262 129.274 8.70535 129.379 8.64515C131.18 7.61367 132.872 10.2225 134.539 8.41638Z" fill="white"/>
<path d="M13.1045 3.19477C13.1652 3.16266 13.1935 2.92586 13.3959 3.00212C13.3675 3.15062 13.1976 3.20681 13.1045 3.2911V3.19477Z" fill="#FEF11E"/>
<path d="M13.1041 3.19478C13.1527 3.22287 13.1527 3.25498 13.1041 3.2911C12.578 3.74865 12.0074 4.16204 11.5015 4.63564C2.91 12.6467 1.94684 25.9114 9.41334 35.0261C18.4743 46.0834 35.6007 45.8145 44.2732 34.4482C49.4734 27.6332 50.2626 18.5867 46.5111 10.9008C47.2031 11.7115 47.8061 12.755 48.2958 13.7062C56.3572 29.3309 46.4706 48.4313 28.9679 50.7672C10.4291 53.2396 -4.18013 35.6884 1.0889 18.0087C2.89786 11.9242 7.42227 6.13269 13.1041 3.19478Z" fill="url(#paint0_linear_483_1114)"/>
<path d="M40.5537 5.35004C50.2824 13.9511 49.6713 29.5998 39.372 37.4824C38.1296 38.4336 35.92 39.8464 34.4388 40.2959C34.3417 40.324 34.1475 40.4605 34.0827 40.328C42.6014 35.1265 45.1145 23.8605 39.5622 15.5324C31.9581 4.12993 14.5646 5.61895 8.94349 18.089C6.96457 22.4798 7.25189 25.6947 8.10983 30.254C8.13007 30.3544 8.23933 30.5711 8.05722 30.547C7.06169 28.4841 6.24017 26.2204 5.93261 23.9367C3.32237 4.744 25.8675 -7.63374 40.5537 5.35004Z" fill="url(#paint1_linear_483_1114)"/>
<path d="M17.28 11.0934C15.2242 13.1042 13.6824 15.5404 13.132 18.394C11.2178 28.3035 20.9222 36.6958 30.5133 33.0314C37.6197 30.3142 40.7965 22.0704 37.5792 15.2354C45.3937 24.6471 39.7928 39.2925 27.6927 41.3113C10.9264 44.1128 1.78048 22.4678 15.1878 12.3456C15.7948 11.8881 16.5799 11.4065 17.276 11.0934H17.28Z" fill="url(#paint2_linear_483_1114)"/>
</g>
<defs>
<linearGradient id="paint0_linear_483_1114" x1="18.573" y1="2.47957" x2="32.7245" y2="49.5588" gradientUnits="userSpaceOnUse">
<stop stop-color="#FEEE02"/>
<stop offset="0.37" stop-color="#D59C00"/>
<stop offset="1" stop-color="#E17A27"/>
</linearGradient>
<linearGradient id="paint1_linear_483_1114" x1="39.9567" y1="5.31729" x2="15.1129" y2="34.9415" gradientUnits="userSpaceOnUse">
<stop stop-color="#E1792A"/>
<stop offset="0.62" stop-color="#D49A00"/>
<stop offset="1" stop-color="#FEF005"/>
</linearGradient>
<linearGradient id="paint2_linear_483_1114" x1="35.113" y1="13.8748" x2="14.5386" y2="37.363" gradientUnits="userSpaceOnUse">
<stop stop-color="#FEF106"/>
<stop offset="0.41" stop-color="#D49A00"/>
<stop offset="1" stop-color="#DF7B25"/>
</linearGradient>
<clipPath id="clip0_483_1114">
<rect width="154" height="51" fill="white"/>
</clipPath>
</defs>
</svg>
