<svg width="193" height="64" viewBox="0 0 193 64" fill="none" xmlns="http://www.w3.org/2000/svg">
<g clip-path="url(#clip0_498_1277)">
<path d="M105.071 52.99L106.892 36.48L112.009 36.4901L115.418 44.5285L115.692 44.3724L119.186 36.4851L124.374 36.5405L126.251 52.99H121.199L120.53 43.8032L115.727 53.0001L115.164 52.9144L110.67 43.9241L110.062 52.99H105.071Z" fill="#323132"/>
<path d="M111.462 15.6386L118.279 23.1331L118.705 23.3748V15.6386H123.817V32.1989H120.226C117.746 29.6303 115.261 27.0616 112.842 24.4224C112.735 24.3066 112.735 24.1656 112.497 24.221V32.1989H107.263V15.8199L107.445 15.6386H111.462Z" fill="#323132"/>
<path d="M101.856 38.4191C106.639 42.7405 104.488 51.3984 98.1333 53.0504C91.3067 54.8334 84.9062 50.3508 86.1133 43.0478C87.3203 35.7447 96.8501 33.8963 101.851 38.4141L101.856 38.4191ZM94.9432 39.9654C90.0287 40.4136 90.333 50.0335 95.638 49.4845C100.253 49.006 100.055 39.502 94.9432 39.9654Z" fill="#323132"/>
<path d="M102.962 17.8548C107.927 22.9216 104.661 32.058 97.3472 32.5667C90.8503 33.0149 86.3719 29.4087 86.9349 22.71C87.5739 15.1753 98.1637 12.9592 102.957 17.8548H102.962ZM93.6752 20.1514C91.3777 22.3675 91.961 28.4518 95.7597 28.6935C101.399 29.0561 100.958 18.434 95.6989 19.1945C95.0345 19.2902 94.1571 19.6881 93.6803 20.1514H93.6752Z" fill="#323132"/>
<path d="M176.928 17.8547C181.792 12.9894 192.27 15.1349 192.95 22.71C193.609 30.003 187.315 34.1582 180.509 32.1637C174.397 30.3706 172.577 22.2063 176.923 17.8547H176.928ZM181.077 20.5241C179.358 22.7452 179.707 28.0538 183.09 28.6381C189.278 29.7108 188.786 17.6935 182.948 19.3002C182.259 19.4916 181.508 19.965 181.077 20.5241Z" fill="#323132"/>
<path d="M133.189 52.99L133.205 36.6211L133.392 36.4499C135.948 36.5254 138.626 36.2887 141.167 36.4247C147.182 36.747 150.22 41.1188 148.932 46.926C148.263 49.9479 145.26 52.99 142.014 52.99H133.189ZM140.675 40.4187C139.96 40.318 139.042 40.4942 138.302 40.4187V48.9406L138.484 49.1219H140.31C141.091 49.1219 142.4 48.165 142.871 47.5555C144.515 45.4301 143.642 40.8367 140.675 40.4187Z" fill="#323132"/>
<path d="M168.854 36.4297V46.523C168.854 46.9511 169.087 47.9836 169.29 48.3866C170.299 50.3458 173.809 50.0789 174.367 47.893C174.422 47.6764 174.57 46.8202 174.57 46.6439V36.4297H179.682V47.49C179.682 54.9795 166.384 55.1406 164.162 49.6054C164.086 49.4191 163.736 48.3211 163.736 48.2153V36.4297H168.849H168.854Z" fill="#323132"/>
<path d="M145.179 15.6386L147.492 19.1441C147.7 19.1592 147.786 18.9527 147.897 18.8218C148.623 17.9202 149.104 16.5251 149.926 15.6386H155.586L150.474 23.5511L155.951 32.199H150.17C149.191 31.106 148.613 29.4439 147.73 28.3359C147.639 28.2201 147.547 28.0639 147.375 28.0841L144.758 32.1939H139.037L144.616 23.5713L139.524 15.6336H145.184L145.179 15.6386Z" fill="#323132"/>
<path d="M156.073 32.1989L162.545 15.6588L167.459 15.6285L173.966 32.1989H168.489L167.561 29.5547L162.149 29.6101L161.312 32.1989H156.078H156.073ZM166.663 26.6385L165.081 21.3199L163.255 26.6385H166.663Z" fill="#323132"/>
<path d="M138.058 15.6386V19.6276H131.972V21.743L132.155 21.9243H137.206V25.7924H131.972V28.3308H139.276L137.145 32.1989H126.738V15.8199L126.921 15.6386H138.058Z" fill="#323132"/>
<path d="M161.673 36.4297V40.4187H155.587V42.7154H160.821V46.5835H155.587V49.1219H163.012L160.76 52.99H150.353V36.611L150.535 36.4297H161.673Z" fill="#323132"/>
<path d="M192.224 41.023C191.504 40.7662 191.007 40.2726 190.252 40.0208C189.445 39.7538 188.329 39.5624 187.503 39.774C186.463 40.0409 185.971 41.3101 186.874 42.0455C187.777 42.7808 189.719 43.1888 190.83 43.9191C194.101 46.0848 193.452 50.8948 190.079 52.6122C187.396 53.9772 183.993 53.3023 181.27 52.3856V48.1549C181.787 48.3261 182.208 48.729 182.705 48.9657C183.841 49.5097 186.803 50.4062 187.584 49.0463C188.73 47.0418 185.611 46.5834 184.389 45.9639C181.838 44.6695 180.6 42.3376 181.665 39.5372C183.161 35.5986 189.034 35.2964 192.23 37.2154V41.023H192.224Z" fill="#323132"/>
<path d="M85.5963 36.5505V40.7813C85.1196 40.7259 84.8 40.2927 84.3791 40.1165C80.8035 38.6105 76.5483 40.7561 76.6041 44.8156C76.67 49.8723 82.4265 50.8494 86.21 49.001L84.0748 52.7432C83.456 53.4534 80.2913 53.4282 79.3327 53.3476C73.5103 52.8741 69.9348 47.6915 71.6693 42.1109C73.5002 36.2081 80.2608 35.0647 85.6014 36.5455L85.5963 36.5505Z" fill="#323132"/>
<path d="M85.5961 19.9903C85.0788 19.8543 84.6832 19.4866 84.171 19.2902C79.9868 17.7137 75.8077 20.7105 76.7409 25.2182C77.6081 29.4037 82.974 29.7864 86.2047 28.21L83.9224 32.199C77.7704 33.8459 70.9033 30.6981 71.2279 23.672C71.5525 16.646 77.9175 14.45 83.9174 15.4321C84.46 15.5228 85.1853 15.5984 85.5961 15.9408V19.9903Z" fill="#323132"/>
<path d="M168.61 10.5617V13.1606C166.698 15.3364 164.68 12.7627 162.489 13.2462C162.098 13.3319 161.845 13.7852 161.429 13.8255V11.4683C161.429 11.3978 162.012 10.9244 162.144 10.8488C164.401 9.55443 166.521 12.8282 168.61 10.5617Z" fill="#323132"/>
<path d="M16.4224 4.00917C16.4984 3.96888 16.5339 3.67172 16.7875 3.76742C16.752 3.95377 16.539 4.02428 16.4224 4.13005V4.00917Z" fill="#FEF11E"/>
<path d="M16.4224 4.00916C16.4833 4.04441 16.4833 4.0847 16.4224 4.13003C15.7631 4.70421 15.048 5.22297 14.414 5.81729C3.6467 15.8703 2.43963 32.5163 11.797 43.9544C23.1526 57.8302 44.6162 57.4928 55.485 43.2291C62.0021 34.677 62.9911 23.3245 58.2896 13.6794C59.1569 14.6968 59.9126 16.0063 60.5263 17.2C70.6292 36.8075 58.2389 60.7766 36.3036 63.7079C13.07 66.8104 -5.23899 44.7854 1.36442 22.5992C3.63149 14.9637 9.30169 7.69594 16.4224 4.00916Z" fill="url(#paint0_linear_498_1277)"/>
<path d="M50.8242 6.7138C63.0167 17.5072 62.2509 37.1449 49.3433 47.0368C47.7862 48.2304 45.0171 50.0033 43.1608 50.5674C43.0391 50.6027 42.7957 50.7739 42.7145 50.6077C53.3905 44.0803 56.5401 29.9426 49.5816 19.4916C40.0518 5.18268 18.2535 7.05125 11.2089 22.7C8.72878 28.21 9.08887 32.2443 10.1641 37.9659C10.1894 38.0918 10.3264 38.3638 10.0981 38.3335C8.8505 35.7447 7.82093 32.9041 7.43548 30.0383C4.16421 5.95328 32.4189 -9.57958 50.8242 6.7138Z" fill="url(#paint1_linear_498_1277)"/>
<path d="M21.6563 13.9211C19.0799 16.4445 17.1475 19.5017 16.4578 23.0827C14.0588 35.5181 26.2209 46.0496 38.2409 41.4512C47.1469 38.0414 51.1282 27.6962 47.0962 19.1189C56.8897 30.9297 49.8704 49.3083 34.7059 51.8417C13.6937 55.3572 2.23155 28.1949 19.0342 15.4926C19.795 14.9184 20.7789 14.314 21.6512 13.9211H21.6563Z" fill="url(#paint2_linear_498_1277)"/>
</g>
<defs>
<linearGradient id="paint0_linear_498_1277" x1="23.2764" y1="3.11143" x2="41.0546" y2="62.1783" gradientUnits="userSpaceOnUse">
<stop stop-color="#FEEE02"/>
<stop offset="0.37" stop-color="#D59C00"/>
<stop offset="1" stop-color="#E17A27"/>
</linearGradient>
<linearGradient id="paint1_linear_498_1277" x1="50.076" y1="6.6725" x2="18.8924" y2="43.8074" gradientUnits="userSpaceOnUse">
<stop stop-color="#E1792A"/>
<stop offset="0.62" stop-color="#D49A00"/>
<stop offset="1" stop-color="#FEF005"/>
</linearGradient>
<linearGradient id="paint2_linear_498_1277" x1="44.0054" y1="17.4113" x2="18.1821" y2="46.8529" gradientUnits="userSpaceOnUse">
<stop stop-color="#FEF106"/>
<stop offset="0.41" stop-color="#D49A00"/>
<stop offset="1" stop-color="#DF7B25"/>
</linearGradient>
<clipPath id="clip0_498_1277">
<rect width="193" height="64" fill="white"/>
</clipPath>
</defs>
</svg>
