<svg width="177" height="84" viewBox="0 0 177 84" fill="none" xmlns="http://www.w3.org/2000/svg">
<g clip-path="url(#clip0_685_921)">
<path d="M0 83.4177H30.5508V77.3033H7.47519C7.47519 77.3033 7.36685 77.2032 7.36685 77.1941V57.6863C7.36685 57.6863 7.46616 57.5771 7.47519 57.5771H28.0951V51.4627H7.47519C7.47519 51.4627 7.36685 51.3627 7.36685 51.3536V32.3189H30.5508V26.1317H0V83.4177Z" fill="#263650"/>
<path d="M38.2783 32.3189H53.8065V83.4905L61.2456 83.4177V32.3189H76.7015V26.2045H38.2783V32.3189Z" fill="#263650"/>
<path d="M171.821 29.662C165.477 23.945 156.365 25.2825 148.492 25.1127V0H136.792V26.2045L85.8018 26.1317V83.4177H116.353V77.3033H93.2408V57.5771H113.897V51.4627H93.2408V33.7747H93.283V32.4068H148.492V31.2998H158.712C164.583 31.6031 169.025 34.3964 169.368 40.7231C169.753 47.8111 166.133 51.8024 159.145 52.2634H148.492V35.1638H136.792V84H148.492V58.4506C155.579 58.2353 163.464 59.4666 169.792 55.5693C178.592 50.1495 179.41 36.5013 171.821 29.662Z" fill="#263650"/>
</g>
<defs>
<clipPath id="clip0_685_921">
<rect width="177" height="84" fill="white"/>
</clipPath>
</defs>
</svg>
