<svg width="101" height="104" viewBox="0 0 101 104" fill="none" xmlns="http://www.w3.org/2000/svg">
<path d="M47.2416 22.4715L46.7823 22.2299C45.6091 22.7109 43.0601 24.854 41.95 24.854C41.1777 24.854 38.7233 23.0429 37.8946 22.5844C37.7212 22.2254 37.6762 18.0612 37.782 17.5012C37.8293 17.2483 37.9081 17.0812 38.1468 16.9637L67.4151 0L71.2993 2.07079L71.2228 8.13184L58.953 15.1346V28.9097L64.9246 25.773C65.9334 26.3308 70.3558 28.4084 70.6148 29.2936L70.4572 70.3683C70.3041 70.5648 70.1014 70.6348 69.8672 70.68C69.1331 70.82 64.758 70.82 64.0262 70.68C63.7897 70.6348 63.5893 70.5648 63.4362 70.3683L63.1142 30.495C62.5558 29.7859 62.1099 29.3794 61.1484 29.6391L54.8863 33.3561L54.6274 47.0387C54.5711 47.2374 54.3009 47.5603 54.1252 47.6642C53.5285 48.021 48.6512 48.0165 48.0207 47.662C47.7483 47.5084 47.3114 46.9664 47.2484 46.63L47.1966 32.9068C47.0637 32.4483 45.17 31.326 44.6161 30.9782C43.3956 30.2172 39.2614 27.4035 38.9011 30.1382L38.9057 69.6615C38.8539 69.9664 38.6174 70.3187 38.363 70.4722C37.8226 70.7952 33.3799 70.7884 32.4904 70.689C32.0671 70.6416 31.6685 70.5716 31.3668 70.2351L31.252 31.5496L39.7163 26.6492L47.2416 30.7118V22.4693V22.4715Z" fill="#2D8366"/>
<path d="M53.8306 56.0851H48.4849C47.8034 56.0851 47.251 56.6392 47.251 57.3226V69.517C47.251 70.2005 47.8034 70.7545 48.4849 70.7545H53.8306C54.5121 70.7545 55.0645 70.2005 55.0645 69.517V57.3226C55.0645 56.6392 54.5121 56.0851 53.8306 56.0851Z" fill="#2D8366"/>
<path d="M47.2422 5.53492C47.2827 5.39491 48.2915 4.48485 48.5189 4.33129C48.9197 4.05804 52.5406 2.07081 52.7792 2.0392C54.0042 1.88112 56.0173 3.6606 57.1656 4.19805L56.8211 4.9794L47.8074 9.95199C47.6205 9.97232 47.2422 9.71488 47.2422 9.59971V5.53492Z" fill="#2D8366"/>
<path d="M21.0205 91.9908H13.1191V91.0355C13.333 91.0175 13.6438 90.9904 14.0513 90.9542C14.4589 90.9181 14.7381 90.8639 14.889 90.7939C15.1569 90.6855 15.3528 90.5229 15.4789 90.3039C15.605 90.0848 15.6658 89.8003 15.6658 89.4503V82.6575H6.71963V89.3035C6.71963 89.6174 6.77142 89.8816 6.87275 90.0961C6.97633 90.3106 7.17899 90.5003 7.48297 90.6607C7.63384 90.742 7.9063 90.821 8.2936 90.9023C8.68316 90.9836 8.98939 91.0288 9.21232 91.0378V91.993H1.31543V91.0378C1.52935 91.0197 1.84009 90.9926 2.24765 90.9565C2.65522 90.9204 2.93444 90.8662 3.08531 90.7962C3.35326 90.6878 3.54917 90.5252 3.67526 90.3061C3.80136 90.0871 3.86216 89.8025 3.86216 89.4525V75.6774C3.86216 75.3906 3.80361 75.1286 3.68877 74.8893C3.57168 74.6522 3.37128 74.4647 3.08531 74.3315C2.84437 74.2141 2.55164 74.1124 2.20712 74.0221C1.8626 73.9318 1.56537 73.8798 1.31543 73.8618V72.9066H9.21682V73.8618C8.96688 73.8708 8.66064 73.9115 8.29811 73.9837C7.93557 74.056 7.66536 74.1237 7.48748 74.1847C7.18349 74.2931 6.98083 74.4715 6.87725 74.7222C6.77367 74.9728 6.72413 75.2461 6.72413 75.5419V81.4607H15.6703V75.6751C15.6703 75.3883 15.6118 75.1264 15.497 74.887C15.3799 74.6499 15.1795 74.4625 14.8935 74.3292C14.6525 74.2118 14.3598 74.1102 14.0153 74.0199C13.6708 73.9295 13.3736 73.8776 13.1236 73.8595V72.9043H21.025V73.8595C20.7751 73.8686 20.4688 73.9092 20.1063 73.9815C19.7438 74.0537 19.4735 74.1215 19.2957 74.1824C18.9917 74.2908 18.789 74.4692 18.6854 74.7199C18.5819 74.9706 18.5323 75.2438 18.5323 75.5396V89.3012C18.5323 89.6151 18.5841 89.8793 18.6854 90.0939C18.789 90.3084 18.9917 90.4981 19.2957 90.6584C19.4465 90.7397 19.719 90.8187 20.1063 90.9C20.4958 90.9813 20.8021 91.0265 21.025 91.0355V91.9908H21.0205Z" fill="#616161"/>
<path d="M35.5618 87.7046L35.2848 91.9907H23.2402V91.2636C23.4451 91.2501 23.7176 91.2207 24.0576 91.1755C24.3976 91.1304 24.6206 91.0852 24.7219 91.0378C24.9403 90.9339 25.0912 90.8029 25.1767 90.6381C25.2623 90.4732 25.3051 90.2655 25.3051 90.0125V79.5525C25.3051 79.3267 25.2668 79.1279 25.1925 78.9518C25.1182 78.7779 24.9606 78.6356 24.7219 78.5272C24.5372 78.4392 24.2896 78.3601 23.9811 78.2924C23.6726 78.2246 23.4249 78.184 23.2402 78.1704V77.4433H34.4675V80.9503H33.6996C33.5623 80.4309 33.2695 79.8777 32.8147 79.295C32.3621 78.7102 31.9297 78.3918 31.5222 78.3353C31.3105 78.3082 31.0583 78.2879 30.7656 78.2743C30.4729 78.2608 30.1373 78.254 29.7636 78.254H27.4825V84.0373H29.1196C29.6442 84.0373 30.027 83.9876 30.2702 83.8883C30.5111 83.7889 30.7251 83.624 30.9097 83.3914C31.0606 83.1927 31.1867 82.9285 31.2925 82.5966C31.3983 82.2646 31.4681 81.953 31.5019 81.6571H32.2698V87.3591H31.5019C31.4749 87.0317 31.4006 86.6839 31.2812 86.3181C31.1619 85.9523 31.038 85.6881 30.9074 85.5232C30.6958 85.2567 30.4548 85.0828 30.1869 84.9993C29.9167 84.918 29.5609 84.8774 29.1173 84.8774H27.4803V89.238C27.4803 89.6738 27.5118 90.0193 27.5726 90.2722C27.6334 90.5252 27.7527 90.7149 27.9306 90.8458C28.1085 90.9768 28.3495 91.0604 28.6557 91.0965C28.9619 91.1326 29.3988 91.1529 29.964 91.1529H30.8534C31.2204 91.1529 31.5312 91.1394 31.7834 91.1123C32.0423 91.0852 32.3103 91.0355 32.585 90.9633C32.862 90.891 33.0579 90.7939 33.1727 90.6719C33.4857 90.3445 33.8145 89.8454 34.159 89.1793C34.5035 88.5131 34.7219 88.0231 34.8187 87.7069H35.5551L35.5618 87.7046Z" fill="#616161"/>
<path d="M47.3097 85.2116C47.733 85.4984 48.0843 85.8755 48.3635 86.3384C48.6427 86.8036 48.7824 87.3682 48.7824 88.0298C48.7824 88.6915 48.636 89.2944 48.3433 89.7935C48.0505 90.2926 47.6677 90.7036 47.1971 91.0242C46.74 91.3381 46.2244 91.5775 45.6479 91.7423C45.0715 91.9072 44.477 91.9885 43.8645 91.9885H36.9922V91.2613C37.1566 91.2478 37.3953 91.2184 37.7082 91.1733C38.0212 91.1281 38.2464 91.0762 38.3838 91.0152C38.5954 90.9203 38.7441 90.7916 38.8341 90.6313C38.9219 90.471 38.967 90.2632 38.967 90.0103V79.5502C38.967 79.3176 38.9287 79.1121 38.8499 78.936C38.7711 78.7598 38.6157 78.6153 38.3838 78.5047C38.1789 78.403 37.9514 78.324 37.6992 78.2698C37.447 78.2156 37.2354 78.1817 37.0642 78.1682V77.441H43.7609C44.2789 77.441 44.7742 77.493 45.2494 77.5946C45.7245 77.6962 46.1748 77.8791 46.6049 78.1388C47.008 78.3782 47.3367 78.7034 47.5957 79.1121C47.8546 79.5209 47.9852 80.0222 47.9852 80.6093C47.9852 81.1219 47.8929 81.5781 47.7083 81.9778C47.5236 82.3775 47.2647 82.7208 46.9314 83.0075C46.6184 83.2808 46.2581 83.5111 45.8528 83.7008C45.4475 83.8883 45.0084 84.035 44.5378 84.1367V84.2292C44.9544 84.2767 45.4182 84.3805 45.9339 84.5409C46.4495 84.7012 46.9066 84.9248 47.3097 85.2116ZM44.8373 83.0166C45.0895 82.723 45.2629 82.4001 45.3619 82.0501C45.461 81.7 45.5106 81.2868 45.5106 80.808C45.5106 80.0064 45.2921 79.3786 44.8576 78.9224C44.423 78.4663 43.7362 78.2382 42.7972 78.2382C42.5788 78.2382 42.3063 78.2427 41.9753 78.254C41.6443 78.2653 41.3673 78.2721 41.1444 78.2788V83.877H42.4392C42.9976 83.877 43.475 83.8047 43.8735 83.6624C44.2721 83.5179 44.5918 83.3034 44.8373 83.0143V83.0166ZM46.2559 87.6617C46.2559 86.8014 45.9677 86.0923 45.3912 85.539C44.8148 84.9858 43.9929 84.708 42.921 84.708C42.4842 84.708 42.1172 84.7125 41.8177 84.7238C41.5182 84.7328 41.293 84.7419 41.1422 84.7486V89.8771C41.1422 90.3084 41.3155 90.6336 41.6646 90.8503C42.0113 91.0694 42.4955 91.1778 43.1169 91.1778C44.1325 91.1778 44.9093 90.8797 45.4475 90.2858C45.9857 89.6919 46.2559 88.8157 46.2559 87.6617Z" fill="#616161"/>
<path d="M64.8234 91.9907H60.9166C60.0519 90.6313 59.2706 89.4548 58.5725 88.4634C57.8745 87.472 57.1179 86.4491 56.3005 85.3967H54.8144V90.0125C54.8144 90.2519 54.8526 90.4619 54.9269 90.6426C55.0013 90.8232 55.1611 90.9633 55.4066 91.0581C55.5282 91.1055 55.7443 91.1507 56.0506 91.1913C56.3568 91.232 56.6158 91.2568 56.8274 91.2636V91.9907H50.6914V91.2636C50.8558 91.25 51.0922 91.2252 51.403 91.1913C51.7137 91.1575 51.9299 91.1123 52.0515 91.0581C52.2564 90.97 52.405 90.8391 52.4951 90.6697C52.5874 90.4981 52.6324 90.279 52.6324 90.0125V79.4915C52.6324 79.2521 52.5986 79.0399 52.5311 78.8569C52.4635 78.6718 52.3037 78.5318 52.0515 78.4369C51.8803 78.3759 51.6597 78.3195 51.3872 78.2675C51.1147 78.2156 50.8828 78.184 50.6914 78.1704V77.4433H57.3881C58.0006 77.4433 58.577 77.5065 59.1152 77.633C59.6534 77.7594 60.142 77.9627 60.5766 78.2427C60.9999 78.516 61.3377 78.8728 61.5899 79.3154C61.8421 79.7557 61.9682 80.2887 61.9682 80.9097C61.9682 81.4697 61.8826 81.9665 61.7137 82.3956C61.5448 82.8246 61.2904 83.1995 60.9571 83.5134C60.6509 83.807 60.2816 84.0621 59.8538 84.2767C59.4237 84.4912 58.9508 84.6741 58.4329 84.8254C59.149 85.7761 59.7434 86.5755 60.2163 87.2259C60.6892 87.8763 61.2701 88.6644 61.9592 89.5948C62.2586 90.0058 62.5311 90.3084 62.772 90.5026C63.013 90.6968 63.2539 90.8571 63.4926 90.9791C63.6705 91.0671 63.8912 91.1371 64.1569 91.1846C64.4226 91.232 64.6432 91.2591 64.8211 91.2659V91.993L64.8234 91.9907ZM59.4462 81.1468C59.4462 80.2661 59.194 79.5683 58.6896 79.0534C58.1852 78.5385 57.4737 78.2811 56.5527 78.2811H54.8144V84.516H56.1542C57.0954 84.516 57.879 84.2134 58.505 83.6105C59.1332 83.0053 59.4462 82.1856 59.4462 81.149V81.1468Z" fill="#616161"/>
<path d="M77.0841 79.1618C77.7258 79.8325 78.2257 80.641 78.5883 81.5872C78.9485 82.5334 79.1309 83.5812 79.1309 84.7306C79.1309 85.88 78.9463 86.9346 78.5793 87.8786C78.2122 88.8225 77.6988 89.6242 77.0458 90.2881C76.4108 90.9452 75.6767 91.4511 74.8368 91.8056C73.9969 92.1602 73.1053 92.3386 72.1573 92.3386C71.1485 92.3386 70.2163 92.1489 69.3606 91.7695C68.5049 91.3901 67.7708 90.8617 67.1561 90.1842C66.5436 89.5203 66.0595 88.7164 65.7105 87.7702C65.3592 86.824 65.1836 85.81 65.1836 84.7306C65.1836 83.5473 65.3682 82.4927 65.7353 81.5669C66.1023 80.641 66.6112 79.8393 67.2597 79.1618C67.8992 78.4912 68.6445 77.9785 69.4934 77.624C70.3423 77.2695 71.2295 77.0911 72.1573 77.0911C73.085 77.0911 74.024 77.2717 74.8774 77.6353C75.7308 77.9989 76.4649 78.507 77.0863 79.1641L77.0841 79.1618ZM75.5597 89.4774C75.9402 88.8564 76.2194 88.1518 76.3928 87.3637C76.5662 86.5778 76.654 85.6994 76.654 84.7284C76.654 83.7573 76.5572 82.8134 76.3635 81.9801C76.1699 81.1468 75.8839 80.4355 75.5101 79.8461C75.1341 79.2657 74.6657 78.8118 74.0983 78.4866C73.5308 78.1615 72.8846 77.9989 72.155 77.9989C71.3376 77.9989 70.6418 78.1863 70.0699 78.5634C69.4979 78.9405 69.0296 79.4419 68.6693 80.0697C68.3293 80.6703 68.0748 81.3749 67.9082 82.1811C67.7416 82.9873 67.6583 83.8364 67.6583 84.7238C67.6583 85.7084 67.7461 86.5959 67.924 87.3908C68.1019 88.1857 68.3811 88.888 68.7616 89.5022C69.1287 90.1029 69.5925 90.5749 70.1532 90.9114C70.7116 91.2501 71.3804 91.4195 72.1573 91.4195C72.8868 91.4195 73.5443 91.2478 74.1298 90.9068C74.7152 90.5659 75.1926 90.0871 75.5619 89.4706L75.5597 89.4774Z" fill="#616161"/>
<path d="M100.771 73.8573C100.521 73.8663 100.136 73.9386 99.6183 74.0718C99.1004 74.2073 98.7288 74.345 98.5059 74.4896C98.1839 74.7131 97.9677 75.1444 97.8552 75.7813C97.7426 76.4181 97.6885 77.2243 97.6885 78.2021V92.1782H96.5221L84.9864 76.5604V86.4084C84.9864 87.5105 85.0562 88.3595 85.1936 88.9512C85.3332 89.5428 85.5448 89.9651 85.8308 90.2158C86.0357 90.4123 86.4613 90.5974 87.1053 90.7668C87.7493 90.9362 88.1749 91.0265 88.3798 91.0355V91.9908H80.573V91.0355C80.8139 91.0175 81.2215 90.9294 81.7934 90.7736C82.3654 90.6155 82.7234 90.4755 82.8675 90.349C83.1805 90.0984 83.3944 89.7145 83.5115 89.1996C83.6286 88.6847 83.6849 87.804 83.6849 86.5552V77.152C83.6849 76.7387 83.6128 76.3278 83.471 75.9145C83.3269 75.5012 83.1355 75.1828 82.8945 74.9593C82.5725 74.6634 82.1357 74.4105 81.5863 74.1983C81.0368 73.9882 80.591 73.8731 80.251 73.855V72.8998H85.689L96.387 87.4517V78.3737C96.387 77.2627 96.315 76.4068 96.1731 75.8106C96.029 75.2145 95.8241 74.817 95.5561 74.6205C95.3062 74.4512 94.8964 74.2841 94.3289 74.1237C93.7615 73.9634 93.3291 73.8731 93.0342 73.855V72.8998H100.773V73.855L100.771 73.8573Z" fill="#616161"/>
<path d="M13.1931 96.8663V102.083H12.5986V96.8663H13.1931Z" fill="#616161"/>
<path d="M15.3777 96.8663L18.4986 101.107V96.8663H19.0864V102.083H18.4761L15.3552 97.8487V102.083H14.7607V96.8663H15.3777Z" fill="#616161"/>
<path d="M22.1687 97.4263C21.5 97.4263 21.0609 97.695 21.0609 98.1422C21.0609 99.4994 23.9882 98.7903 23.9814 100.683C23.9814 101.548 23.2158 102.105 22.1012 102.105C21.3424 102.105 20.5993 101.778 20.1084 101.308L20.3764 100.793C20.8605 101.256 21.5202 101.523 22.108 101.523C22.8578 101.523 23.3261 101.218 23.3261 100.71C23.3329 99.3164 20.4056 100.055 20.4056 98.1828C20.4056 97.3631 21.1262 96.8414 22.2048 96.8414C22.806 96.8414 23.423 97.0356 23.8553 97.3269L23.6031 97.8554C23.1347 97.5505 22.5853 97.4241 22.1687 97.4241V97.4263Z" fill="#616161"/>
<path d="M28.4784 96.8663V97.4173H26.7761V102.083H26.1816V97.4173H24.4883V96.8663H28.4784Z" fill="#616161"/>
<path d="M29.9255 96.8663V102.083H29.3311V96.8663H29.9255Z" fill="#616161"/>
<path d="M34.7782 96.8663V97.4173H33.0759V102.083H32.4814V97.4173H30.7881V96.8663H34.7782Z" fill="#616161"/>
<path d="M37.7059 101.561C38.6944 101.561 39.2889 100.965 39.2889 99.9352V96.864H39.8833V99.9352C39.8833 101.299 39.066 102.103 37.7059 102.103C36.3458 102.103 35.5127 101.299 35.5127 99.9352V96.864H36.1072V99.9352C36.1072 100.963 36.7174 101.561 37.7059 101.561Z" fill="#616161"/>
<path d="M41.9275 96.8663V102.083H41.333V96.8663H41.9275Z" fill="#616161"/>
<path d="M46.2509 103.015C46.2577 103.417 45.9469 103.686 45.5304 103.686C45.3074 103.686 45.0778 103.612 44.9292 103.499L45.0553 103.194C45.1746 103.284 45.3457 103.343 45.4943 103.343C45.7398 103.343 45.8952 103.171 45.8884 102.986C45.8884 102.814 45.7555 102.665 45.5169 102.665C45.4426 102.665 45.339 102.681 45.2714 102.688L45.5236 102.099C44.105 102.017 43.0039 100.884 43.0039 99.4678C43.0039 98.0519 44.2086 96.8528 45.7173 96.8528C46.4311 96.8528 47.1224 97.1441 47.62 97.6138L47.2642 98.0451C46.8634 97.6432 46.2982 97.397 45.7263 97.397C44.5531 97.397 43.6074 98.3138 43.6074 99.4678C43.6074 100.622 44.5509 101.548 45.7263 101.548C46.2982 101.548 46.8566 101.308 47.2642 100.922L47.629 101.317C47.1606 101.758 46.5369 102.056 45.8816 102.101L45.7263 102.458C46.0303 102.496 46.2532 102.697 46.2532 103.018L46.2509 103.015Z" fill="#616161"/>
<path d="M51.9501 100.75H49.1196L48.5409 102.085H47.9082L50.241 96.8685H50.858L53.1841 102.085H52.5378L51.9501 100.75ZM51.7137 100.197L50.5315 97.5144L49.3651 100.197H51.7137ZM49.8267 96.0759H49.4394C49.4394 95.5317 49.6556 95.2404 50.0564 95.2404C50.4572 95.2404 50.6666 95.6943 50.9548 95.6943C51.162 95.6943 51.2746 95.552 51.2746 95.2991H51.6619C51.6619 95.8433 51.4457 96.1346 51.0449 96.1346C50.6148 96.1346 50.4437 95.6807 50.1464 95.6807C49.9393 95.6807 49.8267 95.823 49.8267 96.0759Z" fill="#616161"/>
<path d="M58.8249 99.4745C58.8249 100.942 57.6202 102.105 56.1048 102.105C54.5894 102.105 53.3779 100.942 53.3779 99.4745C53.3779 98.0067 54.5826 96.8505 56.1048 96.8505C57.627 96.8505 58.8249 98.0067 58.8249 99.4745ZM53.9791 99.4745C53.9791 100.631 54.9451 101.561 56.1048 101.561C57.2645 101.561 58.2147 100.631 58.2147 99.4745C58.2147 98.3183 57.2645 97.4037 56.1048 97.4037C54.9451 97.4037 53.9791 98.3206 53.9791 99.4745Z" fill="#616161"/>
<path d="M63.6323 97.4263C62.9635 97.4263 62.5245 97.695 62.5245 98.1422C62.5245 99.4994 65.4517 98.7903 65.445 100.683C65.445 101.548 64.6794 102.105 63.5648 102.105C62.8059 102.105 62.0628 101.778 61.5742 101.308L61.8422 100.793C62.3263 101.256 62.9861 101.523 63.5738 101.523C64.3236 101.523 64.792 101.218 64.792 100.71C64.7987 99.3164 61.8714 100.055 61.8714 98.1828C61.8714 97.3631 62.592 96.8414 63.6706 96.8414C64.2718 96.8414 64.8888 97.0356 65.3211 97.3269L65.0689 97.8554C64.6006 97.5505 64.0511 97.4241 63.6346 97.4241L63.6323 97.4263Z" fill="#616161"/>
<path d="M71.612 99.4745C71.612 100.942 70.4073 102.105 68.8919 102.105C67.3765 102.105 66.165 100.942 66.165 99.4745C66.165 98.0067 67.3697 96.8505 68.8919 96.8505C70.4141 96.8505 71.612 98.0067 71.612 99.4745ZM66.7663 99.4745C66.7663 100.631 67.7323 101.561 68.8919 101.561C70.0516 101.561 71.0018 100.631 71.0018 99.4745C71.0018 98.3183 70.0516 97.4037 68.8919 97.4037C67.7323 97.4037 66.7663 98.3206 66.7663 99.4745Z" fill="#616161"/>
<path d="M74.7924 97.397C73.6192 97.397 72.6735 98.3138 72.6735 99.4677C72.6735 100.622 73.617 101.548 74.7924 101.548C75.3643 101.548 75.9228 101.308 76.3303 100.922L76.6951 101.317C76.1817 101.803 75.4837 102.108 74.7631 102.108C73.2612 102.108 72.0723 100.945 72.0723 99.47C72.0723 97.9954 73.2769 96.855 74.7856 96.855C75.4994 96.855 76.1907 97.1463 76.6884 97.616L76.3326 98.0473C75.9318 97.6454 75.3666 97.3992 74.7946 97.3992L74.7924 97.397Z" fill="#616161"/>
<path d="M78.3523 96.8663V102.083H77.7578V96.8663H78.3523Z" fill="#616161"/>
<path d="M83.2043 100.75H80.3716L79.7929 102.085H79.1602L81.493 96.8685H82.11L84.436 102.085H83.7898L83.2021 100.75H83.2043ZM82.9656 100.197L81.7835 97.5144L80.617 100.197H82.9656Z" fill="#616161"/>
<path d="M85.8415 96.8663V101.532H88.1226V102.083H85.2471V96.8663H85.8415Z" fill="#616161"/>
</svg>
