<?xml version="1.0" standalone="no"?>
<!DOCTYPE svg PUBLIC "-//W3C//DTD SVG 20010904//EN"
 "http://www.w3.org/TR/2001/REC-SVG-20010904/DTD/svg10.dtd">
<svg version="1.0" xmlns="http://www.w3.org/2000/svg"
 width="192.000000pt" height="192.000000pt" viewBox="0 0 192.000000 192.000000"
 preserveAspectRatio="xMidYMid meet">

<g transform="translate(0.000000,192.000000) scale(0.100000,-0.100000)"
fill="#000000" stroke="none">
<path d="M90 1688 l0 -148 145 0 145 0 0 148 0 147 -145 0 -145 0 0 -147z
m250 -3 l0 -105 -105 0 -105 0 0 105 0 105 105 0 105 0 0 -105z"/>
<path d="M170 1685 l0 -65 65 0 65 0 0 65 0 65 -65 0 -65 0 0 -65z"/>
<path d="M474 1831 c-2 -2 -4 -13 -4 -23 0 -14 8 -18 40 -18 33 0 40 -3 40
-20 0 -13 -7 -20 -20 -20 -13 0 -20 -7 -20 -20 0 -13 -7 -20 -20 -20 -13 0
-20 7 -20 20 0 13 -7 20 -20 20 -19 0 -20 -7 -20 -130 l0 -130 40 0 c33 0 40
-3 40 -20 0 -13 7 -20 20 -20 13 0 20 7 20 20 0 13 -7 20 -20 20 -15 0 -20 7
-20 25 0 18 5 25 19 25 10 0 21 9 24 20 3 12 14 20 26 20 18 0 21 -6 21 -45 0
-38 3 -45 20 -45 13 0 20 -7 20 -20 0 -13 -7 -20 -20 -20 -13 0 -20 -7 -20
-20 0 -13 7 -20 20 -20 13 0 20 -7 20 -19 0 -18 9 -20 105 -23 l105 -3 0 63
c0 55 -2 62 -20 62 -17 0 -20 7 -20 45 0 38 3 45 20 45 13 0 20 -7 20 -20 0
-15 7 -20 25 -20 20 0 25 -5 25 -25 0 -18 5 -25 20 -25 15 0 20 7 20 25 0 18
5 25 20 25 15 0 20 -7 20 -26 0 -23 3 -25 43 -22 l42 3 3 63 c3 54 6 62 22 62
17 0 20 -7 20 -40 0 -33 3 -40 20 -40 13 0 20 7 20 20 0 13 7 20 20 20 17 0
20 -7 20 -45 l0 -45 -40 0 c-33 0 -40 -3 -40 -20 0 -13 -7 -20 -20 -20 -13 0
-20 -7 -20 -20 0 -18 -7 -20 -65 -20 -58 0 -65 2 -65 20 0 13 -7 20 -20 20
-13 0 -20 -7 -20 -20 0 -13 7 -20 20 -20 17 0 20 -7 20 -45 0 -38 -3 -45 -20
-45 -13 0 -20 -7 -20 -20 0 -15 -7 -20 -25 -20 -18 0 -25 5 -25 20 0 18 -7 20
-85 20 l-85 0 0 -64 c0 -55 -2 -64 -17 -62 -15 2 -18 16 -21 83 -2 71 -5 82
-22 86 -18 5 -20 0 -20 -39 0 -40 -2 -44 -25 -44 -18 0 -25 5 -25 20 0 17 -7
20 -40 20 l-40 0 0 45 c0 38 -3 45 -20 45 -13 0 -20 7 -20 20 0 15 -7 20 -25
20 -18 0 -25 5 -25 20 0 19 -7 20 -105 20 -98 0 -105 -1 -105 -20 0 -13 -7
-20 -20 -20 -13 0 -20 7 -20 20 0 13 -7 20 -20 20 -13 0 -20 -7 -20 -20 0 -13
7 -20 20 -20 13 0 20 -7 20 -20 0 -13 7 -20 19 -20 13 0 21 -8 23 -22 2 -15 9
-22 20 -20 11 2 18 -5 20 -20 2 -15 11 -24 26 -26 14 -2 22 -10 22 -23 0 -16
-7 -19 -45 -19 -38 0 -45 -3 -45 -20 0 -14 -7 -20 -21 -20 -15 0 -20 -5 -17
-22 2 -13 10 -23 18 -23 8 0 16 -10 18 -22 3 -21 -1 -23 -37 -23 -34 0 -41 -3
-41 -20 0 -13 7 -20 20 -20 13 0 20 -7 20 -20 0 -13 -7 -20 -20 -20 -17 0 -20
-7 -20 -45 l0 -45 40 0 40 0 0 -40 c0 -33 -3 -40 -20 -40 -14 0 -20 -7 -20
-21 0 -12 -8 -23 -20 -26 -27 -7 -27 -43 0 -43 13 0 20 -7 20 -20 0 -17 7 -20
40 -20 l40 0 0 105 c0 98 -1 105 -20 105 -18 0 -20 7 -20 65 0 58 2 65 19 65
16 0 20 -8 23 -42 2 -35 7 -43 23 -43 16 0 21 8 23 43 l3 42 60 0 c52 0 59 -2
59 -20 0 -17 -7 -20 -40 -20 -36 0 -40 -2 -40 -25 0 -25 1 -26 63 -23 56 3 62
5 65 26 2 14 10 22 23 22 16 0 19 -7 19 -45 l0 -45 -85 0 c-78 0 -85 -2 -85
-20 0 -18 7 -20 85 -20 78 0 85 -2 85 -20 0 -19 -7 -20 -105 -20 l-105 0 0
-25 c0 -24 3 -25 60 -25 53 0 60 -2 60 -20 0 -13 -7 -20 -20 -20 -13 0 -20 -7
-20 -20 0 -13 7 -20 20 -20 13 0 20 -7 20 -20 0 -11 5 -21 10 -21 6 -1 16 -2
23 -3 22 -2 14 -41 -10 -44 -17 -3 -23 2 -23 16 0 20 -23 36 -34 25 -14 -15
-5 -43 14 -43 13 0 20 -7 20 -20 0 -13 -7 -20 -20 -20 -13 0 -20 -7 -20 -20 0
-13 -7 -20 -20 -20 -13 0 -20 7 -20 20 0 13 -7 20 -20 20 -13 0 -20 7 -20 20
0 13 7 20 20 20 18 0 20 7 20 65 0 58 -2 65 -20 65 -18 0 -20 -7 -20 -65 0
-63 -1 -65 -25 -65 -18 0 -25 -5 -25 -20 0 -15 7 -20 25 -20 18 0 25 -5 25
-20 0 -18 -7 -20 -65 -20 -58 0 -65 2 -65 20 0 13 7 20 20 20 13 0 20 7 20 20
0 13 -7 20 -19 20 -12 0 -21 8 -23 22 -2 11 -11 22 -21 24 -15 2 -17 -11 -17
-147 0 -142 1 -149 20 -149 18 0 20 7 20 66 l0 66 63 -4 c56 -3 62 -5 65 -25
3 -22 7 -23 108 -23 l104 0 0 -40 c0 -33 -3 -40 -20 -40 -13 0 -20 7 -20 20 0
19 -7 20 -110 20 -103 0 -110 1 -110 20 0 13 -7 20 -20 20 -17 0 -20 -7 -20
-40 l0 -40 130 0 130 0 0 -25 c0 -18 5 -25 20 -25 13 0 20 -7 20 -20 0 -13 -7
-20 -20 -20 -18 0 -20 -7 -20 -85 0 -78 2 -85 20 -85 13 0 20 7 20 20 0 13 7
20 20 20 16 0 19 -8 22 -62 2 -48 7 -63 18 -63 8 0 17 9 20 20 3 11 16 21 28
23 17 3 22 -2 22 -20 0 -22 2 -23 82 -21 76 1 83 3 86 22 2 13 11 21 23 21 12
0 19 7 19 20 0 13 7 20 20 20 13 0 20 7 20 20 0 17 -7 20 -40 20 l-40 0 0 45
c0 38 -3 45 -20 45 -13 0 -20 7 -20 20 0 15 -7 20 -25 20 -18 0 -25 5 -25 20
0 13 -7 20 -20 20 -18 0 -20 7 -20 65 0 58 2 65 20 65 17 0 20 -7 20 -40 0
-36 3 -40 25 -40 20 0 25 -5 25 -25 0 -18 5 -25 20 -25 13 0 20 -7 20 -20 0
-13 7 -20 20 -20 13 0 20 7 20 20 0 13 -7 20 -20 20 -15 0 -20 7 -20 25 0 23
4 25 40 25 l40 0 0 -45 c0 -39 3 -45 21 -45 12 0 23 8 26 20 3 11 14 20 24 20
15 0 19 -7 19 -40 l0 -40 -45 0 c-38 0 -45 -3 -45 -19 0 -13 8 -21 23 -23 14
-2 23 -11 25 -26 2 -14 10 -22 23 -22 16 0 19 7 19 45 0 38 3 45 20 45 17 0
20 -7 20 -45 0 -38 3 -45 19 -45 13 0 21 8 23 22 4 31 42 31 46 0 5 -32 42
-30 42 3 0 18 5 25 20 25 17 0 20 -7 20 -45 0 -38 3 -45 20 -45 13 0 20 -7 20
-20 0 -17 -7 -20 -40 -20 -33 0 -40 3 -40 20 0 18 -7 20 -65 20 -58 0 -65 -2
-65 -20 0 -13 7 -20 19 -20 12 0 21 -8 23 -21 3 -19 9 -20 173 -20 157 0 170
1 170 18 0 11 -9 19 -22 21 -15 2 -23 10 -23 23 0 12 -7 19 -20 19 -13 0 -20
7 -20 20 0 13 7 20 20 20 15 0 20 7 20 25 0 20 5 25 25 25 23 0 25 -4 25 -45
0 -38 3 -45 20 -45 17 0 20 -7 20 -39 0 -24 5 -41 14 -44 18 -7 26 1 26 25 0
27 38 23 42 -4 2 -15 10 -23 23 -23 16 0 21 8 23 43 3 42 3 42 43 42 32 0 39
-3 39 -20 0 -14 -7 -20 -21 -20 -15 0 -20 -5 -17 -21 3 -19 9 -21 83 -21 74 0
80 2 83 21 2 13 11 21 23 21 12 0 19 7 19 20 0 13 -7 20 -20 20 -13 0 -20 -7
-20 -20 0 -13 -7 -20 -20 -20 -17 0 -20 7 -20 40 0 33 3 40 20 40 17 0 20 7
20 45 0 38 3 45 20 45 13 0 20 7 20 20 0 13 -7 20 -20 20 -13 0 -20 -7 -20
-20 0 -13 -7 -20 -20 -20 -13 0 -20 7 -20 19 0 13 -8 21 -22 23 -13 2 -24 11
-26 20 -3 16 6 18 82 18 l86 0 0 65 0 65 -40 0 c-33 0 -40 -3 -40 -20 0 -13
-7 -20 -20 -20 -13 0 -20 -7 -20 -20 0 -15 -7 -20 -25 -20 -18 0 -25 5 -25 20
0 14 -7 20 -21 20 -18 0 -20 5 -17 43 3 45 28 60 38 22 4 -11 14 -20 25 -20
16 0 21 8 23 43 3 33 7 42 22 42 11 0 20 -8 22 -21 2 -18 10 -22 41 -23 l37
-1 0 63 0 62 -40 0 c-33 0 -40 -3 -40 -20 0 -13 -7 -20 -20 -20 -13 0 -20 7
-20 19 0 13 -8 21 -22 23 -30 4 -32 43 -3 43 13 0 21 8 23 23 4 29 39 30 44 1
2 -18 10 -22 41 -23 l37 -1 0 43 c0 35 -3 42 -20 42 -13 0 -20 7 -20 20 0 13
-7 20 -20 20 -13 0 -20 -7 -20 -20 0 -17 -7 -20 -45 -20 -38 0 -45 3 -45 20 0
13 -7 20 -20 20 -15 0 -20 7 -20 25 0 23 4 25 45 25 38 0 45 3 45 20 0 13 7
20 20 20 13 0 20 -7 20 -20 0 -17 7 -20 40 -20 l40 0 0 60 c0 53 -2 60 -20 60
-17 0 -20 -7 -20 -40 0 -33 -3 -40 -20 -40 -13 0 -20 7 -20 20 0 13 -7 20 -20
20 -13 0 -20 7 -20 20 0 13 7 20 20 20 18 0 20 7 20 65 0 58 -2 65 -20 65 -13
0 -20 7 -20 20 0 11 -4 21 -10 21 -5 1 -16 2 -22 3 -8 0 -14 19 -16 44 l-3 42
45 0 c39 0 46 -3 46 -20 0 -13 -7 -20 -20 -20 -23 0 -28 -35 -6 -43 18 -7 26
1 26 25 0 14 8 18 40 18 l40 0 0 40 0 40 -59 0 c-54 0 -60 2 -63 23 -2 12 -6
21 -10 20 -5 -2 -24 -3 -43 -3 -28 0 -35 -4 -35 -20 0 -13 -7 -20 -20 -20 -13
0 -20 -7 -20 -20 0 -18 -7 -20 -65 -20 -58 0 -65 2 -65 20 0 13 7 20 19 20 16
0 20 8 23 43 3 42 3 42 46 45 36 3 42 0 42 -16 0 -10 3 -21 6 -25 11 -11 34 5
34 24 0 12 7 19 20 19 13 0 20 7 20 20 0 15 7 20 25 20 18 0 25 -5 25 -20 0
-18 7 -20 60 -20 53 0 60 2 60 20 0 17 -7 20 -40 20 -33 0 -40 3 -40 20 0 19
-7 20 -104 20 -95 0 -104 -2 -109 -20 -3 -12 -14 -20 -26 -20 -20 0 -21 5 -21
105 l0 105 -60 0 c-57 0 -60 1 -60 25 0 18 5 25 20 25 17 0 20 7 20 40 0 33 3
40 20 40 13 0 20 -7 20 -20 0 -13 7 -20 20 -20 17 0 20 7 20 43 l0 43 -40 -4
c-31 -3 -40 -8 -40 -23 0 -28 -38 -25 -42 4 -2 14 -10 22 -23 22 -13 0 -21 -8
-23 -22 -3 -19 -10 -23 -42 -23 -32 0 -39 4 -42 23 -2 14 -10 22 -23 22 -29 0
-27 -39 3 -43 30 -5 30 -39 0 -44 -34 -5 -37 -38 -4 -38 21 0 26 -5 26 -25 0
-20 -5 -25 -25 -25 -18 0 -25 -5 -25 -20 0 -13 -7 -20 -20 -20 -13 0 -20 7
-20 20 0 17 -7 20 -39 20 -33 0 -40 4 -43 23 -2 18 -10 23 -45 25 -40 3 -43 1
-43 -22 0 -24 -4 -26 -39 -26 -33 0 -40 4 -43 23 -2 14 -10 22 -23 22 -13 0
-21 -8 -23 -22 -5 -33 -42 -31 -42 2 0 23 -4 25 -40 25 -36 0 -40 -2 -40 -25
0 -22 4 -25 40 -25 l40 0 0 -40 c0 -33 -3 -40 -20 -40 -13 0 -20 7 -20 20 0
17 -7 20 -45 20 -38 0 -45 3 -45 20 0 13 -7 20 -20 20 -17 0 -19 8 -22 86 l-3
86 -78 1 c-43 1 -81 0 -83 -2z m896 -80 c0 -33 -4 -40 -22 -43 -15 -2 -24 -11
-26 -25 -3 -19 1 -23 22 -23 26 0 26 0 26 -85 0 -78 2 -85 20 -85 13 0 20 -7
20 -20 0 -13 -7 -20 -20 -20 -13 0 -20 -7 -20 -20 0 -17 7 -20 41 -20 36 0 40
-2 37 -22 -2 -19 -9 -23 -41 -23 -32 0 -37 -3 -37 -22 0 -16 6 -23 20 -23 13
0 20 -7 20 -20 0 -13 -7 -20 -20 -20 -18 0 -20 -7 -20 -65 l0 -65 40 0 c33 0
40 3 40 20 0 13 -7 20 -20 20 -15 0 -20 7 -20 25 0 18 5 25 20 25 13 0 20 -7
20 -20 0 -17 7 -20 45 -20 38 0 45 3 45 20 0 13 7 20 20 20 13 0 20 -7 20 -19
0 -10 9 -21 20 -24 12 -3 20 -14 20 -26 0 -18 6 -21 45 -21 l45 0 0 -40 c0
-36 -2 -40 -25 -40 -18 0 -25 5 -25 20 0 13 -7 20 -20 20 -13 0 -20 7 -20 20
0 13 -7 20 -20 20 -13 0 -20 -7 -20 -20 0 -13 -7 -20 -20 -20 -13 0 -20 -7
-20 -20 0 -17 7 -20 40 -20 l40 0 0 -45 0 -45 45 0 c38 0 45 -3 45 -20 0 -18
-7 -20 -85 -20 -78 0 -85 -2 -85 -20 0 -17 -7 -20 -45 -20 -41 0 -45 -2 -45
-25 0 -24 2 -25 65 -25 l65 0 0 -39 c0 -40 0 -40 -42 -43 -35 -2 -43 -7 -48
-26 -3 -13 -8 -23 -12 -23 -24 2 -28 -1 -28 -19 0 -13 -7 -20 -20 -20 -18 0
-20 -7 -20 -59 0 -50 3 -59 20 -64 12 -3 20 -14 20 -26 0 -14 -6 -21 -20 -21
-13 0 -20 7 -20 19 0 10 -9 21 -20 24 -18 5 -20 0 -20 -39 0 -37 3 -44 20 -44
13 0 20 -7 20 -20 0 -13 7 -20 20 -20 15 0 20 -7 20 -25 0 -18 -5 -25 -20 -25
-15 0 -20 7 -20 25 0 33 -37 35 -42 3 -2 -15 -10 -23 -23 -23 -13 0 -21 8 -23
23 -2 14 -10 22 -23 22 -12 0 -19 7 -19 20 0 13 7 20 20 20 17 0 20 7 20 44 0
36 -3 44 -17 42 -12 0 -19 7 -21 22 -3 19 -9 22 -48 22 -37 0 -44 3 -44 20 0
17 -7 20 -40 20 -33 0 -40 -3 -40 -20 0 -16 7 -20 38 -20 29 0 39 -5 47 -22 6
-13 17 -23 25 -23 8 0 16 -10 18 -23 3 -18 -1 -22 -22 -22 -19 0 -26 -5 -26
-20 0 -15 7 -20 25 -20 18 0 25 -5 25 -20 0 -15 -7 -20 -26 -20 -21 0 -25 -4
-22 -22 2 -15 11 -24 26 -26 32 -5 30 -42 -3 -42 -18 0 -25 -5 -25 -20 0 -15
7 -20 25 -20 18 0 25 -5 25 -20 0 -13 7 -20 20 -20 13 0 20 7 20 20 0 13 7 20
20 20 13 0 20 7 20 20 0 15 7 20 25 20 18 0 25 -5 25 -20 0 -13 7 -20 20 -20
13 0 20 7 20 20 0 13 7 20 20 20 17 0 20 -7 20 -40 0 -33 3 -40 20 -40 17 0
20 -7 20 -45 l0 -45 -40 0 c-33 0 -40 3 -40 20 0 13 7 20 20 20 15 0 20 7 20
25 0 23 -4 25 -40 25 -33 0 -40 3 -40 20 0 15 -7 20 -25 20 -18 0 -25 -5 -25
-20 0 -13 -7 -20 -20 -20 -15 0 -20 -7 -20 -25 0 -18 -5 -25 -20 -25 -15 0
-20 7 -20 25 0 23 -4 25 -45 25 l-45 0 0 81 c0 72 2 81 20 86 11 3 20 14 20
24 0 15 -7 19 -40 19 -33 0 -40 3 -40 20 0 17 7 20 40 20 33 0 40 3 40 20 0
18 -7 20 -59 20 -51 0 -59 -3 -64 -21 -4 -13 -12 -20 -24 -17 -20 4 -25 42 -5
44 6 1 17 2 22 3 6 0 10 19 10 41 0 36 -2 40 -25 40 -18 0 -25 -5 -25 -20 0
-13 -7 -20 -19 -20 -13 0 -21 -8 -23 -23 -2 -12 -10 -22 -18 -22 -8 0 -16 -10
-18 -22 -3 -18 2 -23 17 -23 14 0 21 -6 21 -20 0 -13 7 -20 20 -20 13 0 20 -7
20 -19 0 -13 8 -21 23 -23 14 -2 23 -11 25 -25 2 -15 10 -23 23 -23 16 0 19
-7 19 -40 l0 -40 -65 0 -65 0 0 85 c0 78 -2 85 -20 85 -13 0 -20 -7 -20 -20 0
-17 -7 -20 -45 -20 -38 0 -45 3 -45 20 0 17 -7 20 -40 20 -33 0 -40 -3 -40
-20 0 -13 -7 -20 -20 -20 -13 0 -20 7 -20 20 0 13 7 20 20 20 13 0 20 7 20 20
0 17 -7 20 -46 20 -41 0 -45 2 -42 23 3 22 6 24 58 26 23 1 30 6 30 21 0 13
-7 20 -20 20 -13 0 -20 7 -20 20 0 13 7 20 20 20 13 0 20 7 20 20 0 13 7 20
19 20 13 0 21 8 23 23 2 14 9 21 21 21 14 -2 17 6 17 42 0 37 -3 44 -20 44
-13 0 -20 -7 -20 -20 0 -13 -7 -20 -20 -20 -13 0 -20 7 -20 20 0 17 -7 20 -45
20 -38 0 -45 3 -45 20 0 13 -7 20 -20 20 -15 0 -20 7 -20 25 0 33 -37 35 -42
3 -2 -15 -11 -24 -26 -26 -21 -3 -23 -7 -20 -65 3 -54 5 -62 23 -62 13 0 21 8
23 23 4 29 39 30 44 0 5 -31 38 -33 38 -1 0 20 4 24 23 21 19 -3 22 -9 22 -43
l0 -40 -107 -3 c-100 -2 -108 -4 -108 -22 0 -13 -7 -20 -20 -20 -13 0 -20 -7
-20 -20 0 -13 7 -20 19 -20 12 0 21 -8 23 -20 2 -12 6 -21 11 -20 4 0 23 0 42
0 34 0 35 1 35 40 0 33 3 40 20 40 30 0 30 -79 0 -87 -16 -4 -20 -14 -20 -44
0 -33 -3 -39 -21 -39 -12 0 -23 -8 -26 -20 -3 -11 -14 -20 -24 -20 -14 0 -19
-7 -19 -25 0 -18 -5 -25 -20 -25 -15 0 -20 7 -20 25 0 18 5 25 20 25 17 0 20
7 20 40 0 33 -3 40 -20 40 -17 0 -20 7 -20 45 0 38 -3 45 -20 45 -13 0 -20 7
-20 20 0 13 7 20 20 20 13 0 20 7 20 20 0 13 7 20 20 20 17 0 20 7 20 45 l0
45 -40 0 c-33 0 -40 3 -40 20 0 17 7 20 40 20 33 0 40 3 40 20 0 13 -7 20 -20
20 -15 0 -20 7 -20 25 0 18 5 25 20 25 13 0 20 7 20 20 0 13 -7 20 -20 20 -13
0 -20 7 -20 20 0 13 7 20 20 20 13 0 20 -7 20 -20 0 -13 7 -20 20 -20 13 0 20
-7 20 -20 0 -15 7 -20 25 -20 23 0 25 4 25 40 0 34 -3 40 -21 40 -12 0 -23 8
-26 19 -3 11 -13 21 -24 24 -15 4 -19 14 -19 46 l0 41 -65 0 c-58 0 -65 2 -65
20 0 13 -7 20 -20 20 -13 0 -20 7 -20 20 0 17 -7 20 -40 20 l-40 0 0 -40 c0
-36 -2 -40 -26 -40 -23 0 -25 3 -22 43 2 24 8 43 16 43 6 1 17 2 22 3 6 0 10
19 10 41 0 33 3 40 20 40 13 0 20 7 20 20 0 13 7 20 19 20 13 0 21 8 23 23 3
19 9 22 43 22 34 0 40 -3 43 -22 2 -15 10 -23 23 -23 12 0 19 -7 19 -20 0 -13
7 -20 20 -20 17 0 20 -7 20 -40 0 -37 2 -40 30 -41 17 -1 36 -2 43 -3 7 0 13
-19 15 -43 3 -35 7 -43 23 -43 12 0 19 -7 19 -20 0 -13 7 -20 20 -20 13 0 20
7 20 20 0 15 7 20 25 20 18 0 25 5 25 20 0 14 7 20 21 20 15 0 20 5 17 23 -2
13 -10 22 -20 22 -10 0 -18 4 -18 8 0 37 0 37 59 37 54 0 60 -2 63 -22 2 -15
10 -23 23 -23 16 0 21 -8 23 -42 3 -40 1 -43 -22 -43 -19 0 -26 5 -26 20 0 17
-7 20 -40 20 -33 0 -40 -3 -40 -20 0 -13 -7 -20 -20 -20 -13 0 -20 -7 -20 -19
0 -10 9 -21 20 -24 12 -3 20 -14 20 -26 0 -14 6 -21 20 -21 14 0 20 -7 20 -21
0 -18 5 -20 42 -17 31 2 44 8 46 20 2 11 -5 18 -20 20 -15 2 -23 10 -23 23 0
18 8 20 63 23 l62 3 0 -66 c0 -58 2 -65 20 -65 13 0 20 7 20 20 0 17 7 20 45
20 38 0 45 3 45 19 0 16 -8 20 -42 23 -43 3 -43 3 -46 46 -3 42 -3 42 -43 42
-32 0 -39 3 -39 20 0 17 7 20 40 20 33 0 40 -3 40 -20 0 -15 7 -20 26 -20 23
0 25 3 22 42 l-3 41 -60 1 c-54 1 -60 3 -63 24 -2 14 -10 22 -23 22 -12 0 -19
7 -19 20 0 13 7 20 20 20 13 0 20 7 20 20 0 17 7 20 40 20 33 0 40 -3 40 -20
0 -17 7 -20 45 -20 38 0 45 3 45 20 0 13 -7 20 -20 20 -17 0 -20 7 -20 45 0
38 3 45 20 45 13 0 20 7 20 20 0 13 7 20 20 20 13 0 20 -7 20 -20 0 -13 7 -20
20 -20 13 0 20 7 20 20 0 15 7 20 25 20 18 0 25 5 25 20 0 13 7 20 20 20 15 0
20 7 20 25 0 18 -5 25 -20 25 -13 0 -20 7 -20 20 0 13 7 20 20 20 13 0 20 -7
20 -20 0 -13 7 -20 20 -20 18 0 20 7 20 60 0 53 -2 60 -20 60 -13 0 -20 -7
-20 -20 0 -13 -7 -20 -20 -20 -13 0 -20 7 -20 20 0 13 7 20 20 20 15 0 20 7
20 25 0 18 -5 25 -20 25 -13 0 -20 7 -20 20 0 17 7 20 40 20 33 0 40 3 40 20
0 15 7 20 25 20 22 0 25 -4 25 -39z m-772 -43 c-2 -35 -7 -43 -23 -43 -16 0
-21 8 -23 43 -3 39 -2 42 23 42 25 0 26 -3 23 -42z m-88 -108 c0 -53 -2 -60
-20 -60 -18 0 -20 7 -20 60 0 53 2 60 20 60 18 0 20 -7 20 -60z m390 40 c0
-13 7 -20 20 -20 17 0 20 -7 20 -40 0 -33 -4 -40 -19 -40 -10 0 -21 9 -24 20
-3 12 -14 20 -26 20 -18 0 -21 6 -21 40 0 36 3 40 25 40 18 0 25 -5 25 -20z
m170 -1 c0 -15 -5 -20 -22 -17 -34 5 -37 38 -4 38 20 0 26 -5 26 -21z m380
-59 c0 -33 -3 -40 -20 -40 -17 0 -20 7 -20 40 0 33 3 40 20 40 17 0 20 -7 20
-40z m-770 -45 l0 -45 65 0 65 0 0 -40 c0 -33 -3 -40 -20 -40 -13 0 -20 7 -20
20 0 17 -7 20 -45 20 -38 0 -45 3 -45 20 0 13 -7 20 -20 20 -17 0 -20 7 -20
45 0 38 3 45 20 45 17 0 20 -7 20 -45z m90 25 c0 -13 -7 -20 -20 -20 -13 0
-20 7 -20 20 0 13 7 20 20 20 13 0 20 -7 20 -20z m250 0 c0 -13 -7 -20 -20
-20 -13 0 -20 7 -20 20 0 13 7 20 20 20 13 0 20 -7 20 -20z m-720 -130 c0 -13
-7 -20 -20 -20 -13 0 -20 7 -20 20 0 13 7 20 20 20 13 0 20 -7 20 -20z m80 0
c0 -13 -7 -20 -20 -20 -13 0 -20 7 -20 20 0 13 7 20 20 20 13 0 20 -7 20 -20z
m1280 -130 c0 -13 -7 -20 -20 -20 -13 0 -20 7 -20 20 0 13 7 20 20 20 13 0 20
-7 20 -20z m0 -510 c0 -13 -7 -20 -20 -20 -13 0 -20 7 -20 20 0 13 7 20 20 20
13 0 20 -7 20 -20z m130 0 c0 -13 -7 -20 -20 -20 -13 0 -20 7 -20 20 0 13 7
20 20 20 13 0 20 -7 20 -20z m-212 -88 c3 -17 -2 -22 -17 -22 -16 0 -21 6 -21
24 0 31 34 29 38 -2z m82 -82 c0 -17 -7 -20 -39 -20 -33 0 -40 -4 -43 -22 -3
-20 -9 -23 -43 -23 -40 0 -40 0 -43 43 l-3 42 85 0 c79 0 86 -2 86 -20z m130
0 c0 -13 -7 -20 -20 -20 -13 0 -20 7 -20 20 0 13 7 20 20 20 13 0 20 -7 20
-20z m-1410 -44 c0 -31 -34 -29 -38 2 -3 17 2 22 17 22 16 0 21 -6 21 -24z
m1410 -126 c0 -13 -7 -20 -20 -20 -13 0 -20 7 -20 20 0 13 7 20 20 20 13 0 20
-7 20 -20z m-1192 -47 c2 -15 10 -23 23 -23 12 0 19 -7 19 -20 0 -13 7 -20 20
-20 18 0 20 -7 20 -65 0 -63 1 -65 26 -65 33 0 30 -33 -4 -38 -17 -3 -22 2
-22 17 0 14 -6 21 -20 21 -14 0 -20 -7 -20 -21 0 -18 -5 -20 -42 -17 -31 2
-44 8 -46 21 -3 14 4 17 42 17 l46 0 0 45 c0 38 -3 45 -20 45 -13 0 -20 -7
-20 -20 0 -15 -7 -20 -25 -20 -18 0 -25 5 -25 20 0 13 -7 20 -20 20 -13 0 -20
-7 -20 -20 0 -13 -7 -20 -20 -20 -13 0 -20 7 -20 20 0 13 7 20 20 20 13 0 20
7 20 20 0 13 7 20 20 20 17 0 20 7 20 46 0 41 2 45 23 42 14 -2 23 -11 25 -25z
m1022 -38 l0 -65 -65 0 -65 0 0 58 c0 32 3 62 7 65 3 4 33 7 65 7 l58 0 0 -65z
m90 -85 c0 -15 -7 -20 -25 -20 -20 0 -25 -5 -25 -25 0 -18 -5 -25 -20 -25 -15
0 -20 7 -20 25 0 18 5 25 19 25 10 0 21 9 24 20 3 12 14 20 26 20 14 0 21 -6
21 -20z m-130 -45 c0 -18 -5 -25 -20 -25 -15 0 -20 7 -20 25 0 18 5 25 20 25
15 0 20 -7 20 -25z"/>
<path d="M1320 1470 c0 -13 -7 -20 -20 -20 -13 0 -20 -7 -20 -20 0 -17 -7 -20
-46 -20 -41 0 -45 -2 -42 -22 2 -13 6 -22 11 -20 4 1 23 2 42 2 28 0 35 4 35
20 0 13 7 20 20 20 13 0 20 7 20 20 0 15 7 20 25 20 18 0 25 5 25 20 0 15 -7
20 -25 20 -18 0 -25 -5 -25 -20z"/>
<path d="M1110 1392 c0 -24 8 -32 26 -25 22 8 17 43 -6 43 -13 0 -20 -7 -20
-18z"/>
<path d="M1298 1362 c-25 -5 -23 -42 2 -42 13 0 20 -7 20 -20 0 -17 -7 -20
-40 -20 -33 0 -40 3 -40 20 0 17 -7 20 -45 20 -38 0 -45 -3 -45 -20 0 -13 -7
-20 -20 -20 -13 0 -20 -7 -20 -20 0 -13 7 -20 20 -20 13 0 20 7 20 20 0 13 7
20 20 20 13 0 20 -7 20 -20 0 -18 7 -20 65 -20 58 0 65 2 65 20 0 15 7 20 25
20 18 0 25 5 25 20 0 15 -7 20 -24 20 -18 0 -26 6 -28 23 -2 15 -9 21 -20 19z"/>
<path d="M340 1300 c0 -13 -7 -20 -20 -20 -13 0 -20 -7 -20 -20 0 -13 7 -20
20 -20 13 0 20 -7 20 -20 0 -13 7 -20 20 -20 13 0 20 7 20 20 0 13 -7 20 -20
20 -13 0 -20 7 -20 20 0 17 7 20 45 20 l45 0 0 -40 c0 -33 3 -40 20 -40 17 0
20 7 20 40 0 33 -3 40 -20 40 -13 0 -20 7 -20 20 0 17 -7 20 -45 20 -38 0 -45
-3 -45 -20z"/>
<path d="M940 1260 c0 -17 7 -20 40 -20 33 0 40 3 40 20 0 17 -7 20 -40 20
-33 0 -40 -3 -40 -20z"/>
<path d="M1116 1193 c-14 -15 -5 -43 14 -43 17 0 20 -7 20 -40 0 -33 -3 -40
-20 -40 -13 0 -20 7 -20 20 0 13 -7 20 -20 20 -13 0 -20 -7 -20 -20 0 -13 7
-20 20 -20 15 0 20 -7 20 -25 0 -18 5 -25 20 -25 13 0 20 -7 20 -20 0 -13 -7
-20 -20 -20 -13 0 -20 -7 -20 -20 0 -17 -7 -20 -45 -20 l-45 0 0 -45 0 -45
-60 0 c-57 0 -60 1 -60 25 0 23 4 25 40 25 33 0 40 3 40 20 0 18 -7 20 -65 20
-58 0 -65 -2 -65 -20 0 -13 -7 -20 -20 -20 -17 0 -20 7 -20 40 0 33 -3 40 -20
40 -13 0 -20 7 -20 20 0 17 -7 20 -45 20 l-45 0 0 -40 c0 -33 -3 -40 -20 -40
-13 0 -20 -7 -20 -20 0 -13 7 -20 20 -20 15 0 20 -7 20 -25 0 -23 4 -25 45
-25 38 0 45 -3 45 -20 0 -13 7 -20 20 -20 13 0 20 7 20 20 0 17 7 20 45 20
l45 0 0 -64 c0 -55 3 -64 17 -62 12 0 19 -7 21 -21 3 -18 -2 -23 -17 -23 -14
0 -21 -6 -21 -20 0 -17 -7 -20 -45 -20 -38 0 -45 -3 -45 -20 0 -13 7 -20 20
-20 13 0 20 -7 20 -19 0 -10 9 -21 19 -24 24 -6 31 0 31 25 0 14 8 18 40 18
33 0 40 3 40 20 0 13 7 20 20 20 13 0 20 7 20 20 0 14 -7 20 -21 20 -15 0 -20
5 -17 23 2 14 9 21 21 21 12 -1 17 6 17 23 0 19 4 24 22 21 12 -2 25 -12 28
-23 7 -27 34 -26 38 3 3 21 8 22 88 22 l84 0 0 40 c0 33 3 40 19 40 13 0 21 8
23 23 2 14 11 23 26 25 18 3 22 10 22 43 0 35 -3 39 -25 39 -18 0 -25 -5 -25
-20 0 -13 -7 -20 -20 -20 -13 0 -20 -7 -20 -20 0 -17 -7 -20 -45 -20 -38 0
-45 3 -45 20 0 15 7 20 25 20 18 0 25 5 25 20 0 15 -7 20 -25 20 -18 0 -25 5
-25 20 0 18 7 20 65 20 63 0 65 1 65 25 0 23 -4 25 -40 25 -33 0 -40 3 -40 20
0 15 -7 20 -25 20 -18 0 -25 5 -25 20 0 13 -7 20 -20 20 -13 0 -20 7 -20 19 0
19 -23 35 -34 24z m74 -233 c0 -13 -7 -20 -20 -20 -17 0 -20 -7 -20 -45 0 -38
3 -45 20 -45 13 0 20 -7 20 -20 0 -13 -7 -20 -20 -20 -13 0 -20 7 -20 20 0 13
-7 20 -20 20 -13 0 -20 -7 -20 -20 0 -17 -7 -20 -45 -20 -38 0 -45 -3 -45 -20
0 -17 -7 -20 -40 -20 -33 0 -40 3 -40 20 0 17 7 20 40 20 33 0 40 3 40 19 0
13 8 21 23 23 14 2 23 11 25 26 2 14 10 22 23 22 12 0 19 7 19 20 0 13 7 20
20 20 13 0 20 7 20 20 0 13 7 20 20 20 13 0 20 -7 20 -20z m-462 -42 c3 -13
-3 -18 -22 -18 -20 0 -26 5 -26 21 0 15 5 20 22 17 13 -2 24 -11 26 -20z m82
-43 c0 -18 -5 -25 -20 -25 -15 0 -20 7 -20 25 0 18 5 25 20 25 15 0 20 -7 20
-25z"/>
<path d="M1285 1192 c-3 -3 -5 -23 -5 -44 l0 -38 45 0 c38 0 45 3 45 20 0 15
-7 20 -25 20 -20 0 -25 5 -25 23 0 21 -21 33 -35 19z"/>
<path d="M380 1169 c0 -15 5 -20 22 -17 34 5 37 38 4 38 -20 0 -26 -5 -26 -21z"/>
<path d="M470 1170 c0 -13 7 -20 20 -20 13 0 20 -7 20 -20 0 -13 7 -20 20 -20
13 0 20 -7 20 -20 0 -15 7 -20 25 -20 23 0 25 -4 25 -45 0 -38 3 -45 20 -45
17 0 20 7 20 45 0 38 -3 45 -20 45 -13 0 -20 7 -20 20 0 15 -7 20 -25 20 -18
0 -25 5 -25 20 0 13 -7 20 -20 20 -13 0 -20 7 -20 20 0 13 -7 20 -20 20 -13 0
-20 -7 -20 -20z"/>
<path d="M1540 1170 c0 -15 -7 -20 -25 -20 -18 0 -25 -5 -25 -20 0 -17 -7 -20
-40 -20 -33 0 -40 -3 -40 -20 0 -13 -7 -20 -20 -20 -15 0 -20 -7 -20 -25 0
-18 5 -25 20 -25 18 0 20 -7 20 -60 0 -53 2 -60 20 -60 17 0 20 7 20 39 0 40
0 40 43 43 42 3 42 3 45 46 3 39 1 42 -22 42 -19 0 -26 5 -26 20 0 15 7 20 25
20 18 0 25 5 25 20 0 13 7 20 20 20 13 0 20 7 20 20 0 13 -7 20 -20 20 -13 0
-20 -7 -20 -20z m-50 -125 c0 -22 -4 -25 -40 -25 -36 0 -40 3 -40 25 0 23 4
25 40 25 36 0 40 -2 40 -25z"/>
<path d="M1370 830 c0 -15 -7 -20 -25 -20 -18 0 -25 -5 -25 -20 0 -15 7 -20
25 -20 19 0 25 -5 25 -23 0 -20 4 -22 40 -19 31 3 40 8 40 23 0 15 -7 19 -40
19 -33 0 -40 3 -40 20 0 17 7 20 40 20 33 0 40 3 40 20 0 17 -7 20 -40 20 -33
0 -40 -3 -40 -20z"/>
<path d="M1155 722 c-14 -14 -3 -42 15 -42 13 0 20 -7 20 -20 0 -17 7 -20 45
-20 38 0 45 3 45 20 0 13 7 20 20 20 14 0 20 7 20 23 0 19 -5 22 -40 22 -35 0
-40 -3 -40 -22 0 -18 -6 -23 -25 -23 -20 0 -25 5 -25 23 0 21 -21 33 -35 19z"/>
<path d="M1070 660 c0 -13 7 -20 20 -20 13 0 20 7 20 20 0 13 -7 20 -20 20
-13 0 -20 -7 -20 -20z"/>
<path d="M1320 620 c0 -15 7 -20 25 -20 18 0 25 5 25 20 0 15 -7 20 -25 20
-18 0 -25 -5 -25 -20z"/>
<path d="M770 530 c0 -17 7 -20 40 -20 33 0 40 3 40 20 0 17 -7 20 -40 20 -33
0 -40 -3 -40 -20z"/>
<path d="M1022 363 c2 -10 13 -19 26 -21 17 -3 22 2 22 17 0 16 -6 21 -26 21
-19 0 -25 -5 -22 -17z"/>
<path d="M1540 360 c0 -13 7 -20 20 -20 13 0 20 7 20 20 0 13 -7 20 -20 20
-13 0 -20 -7 -20 -20z"/>
<path d="M730 1793 c0 -36 3 -43 20 -43 13 0 20 7 20 20 0 14 7 20 21 20 15 0
20 5 17 21 -2 18 -10 22 -41 23 l-37 1 0 -42z"/>
<path d="M854 1831 c-2 -2 -4 -22 -4 -43 0 -34 3 -38 25 -38 18 0 25 5 25 20
0 13 7 20 20 20 13 0 20 -7 20 -20 0 -14 7 -20 21 -20 18 0 20 5 17 41 l-3 41
-58 2 c-32 0 -61 -1 -63 -3z"/>
<path d="M1070 1814 c0 -19 -5 -24 -25 -24 -18 0 -25 -5 -25 -20 0 -15 7 -20
25 -20 18 0 25 5 25 20 0 13 7 20 20 20 17 0 20 -7 20 -40 0 -33 3 -40 20 -40
17 0 20 7 20 40 0 33 -3 40 -19 40 -12 0 -21 8 -23 22 -4 31 -38 33 -38 2z"/>
<path d="M1540 1688 l0 -148 145 0 145 0 0 148 0 147 -145 0 -145 0 0 -147z
m250 -3 l0 -105 -105 0 -105 0 0 105 0 105 105 0 105 0 0 -105z"/>
<path d="M1620 1685 l0 -65 65 0 65 0 0 65 0 65 -65 0 -65 0 0 -65z"/>
<path d="M512 1388 c4 -31 38 -33 38 -2 0 18 -5 24 -21 24 -15 0 -20 -5 -17
-22z"/>
<path d="M90 1324 c0 -38 3 -44 21 -44 18 0 20 5 17 42 -2 30 -8 42 -20 44
-15 2 -18 -6 -18 -42z"/>
<path d="M1790 1090 c0 -13 7 -20 20 -20 13 0 20 7 20 20 0 13 -7 20 -20 20
-13 0 -20 -7 -20 -20z"/>
<path d="M90 233 l0 -148 145 0 145 0 0 148 0 147 -145 0 -145 0 0 -147z m250
2 l0 -105 -105 0 -105 0 0 105 0 105 105 0 105 0 0 -105z"/>
<path d="M170 235 l0 -65 65 0 65 0 0 65 0 65 -65 0 -65 0 0 -65z"/>
<path d="M900 150 c0 -13 7 -20 20 -20 13 0 20 7 20 20 0 13 -7 20 -20 20 -13
0 -20 -7 -20 -20z"/>
<path d="M430 106 c0 -31 34 -29 38 2 3 17 -2 22 -17 22 -16 0 -21 -6 -21 -24z"/>
</g>
</svg>
