<?xml version="1.0" standalone="no"?>
<!DOCTYPE svg PUBLIC "-//W3C//DTD SVG 20010904//EN"
 "http://www.w3.org/TR/2001/REC-SVG-20010904/DTD/svg10.dtd">
<svg version="1.0" xmlns="http://www.w3.org/2000/svg"
 width="192.000000pt" height="192.000000pt" viewBox="0 0 192.000000 192.000000"
 preserveAspectRatio="xMidYMid meet">

<g transform="translate(0.000000,192.000000) scale(0.100000,-0.100000)"
fill="#000000" stroke="none">
<path d="M105 1807 c-3 -7 -4 -89 -3 -182 l3 -170 180 0 180 0 0 180 0 180
-178 3 c-139 2 -179 0 -182 -11z m313 -174 l-3 -128 -127 -2 -128 -2 0 129 0
130 131 0 130 0 -3 -127z"/>
<path d="M210 1635 l0 -75 75 0 75 0 0 75 0 75 -75 0 -75 0 0 -75z"/>
<path d="M520 1765 c0 -52 1 -55 25 -55 20 0 25 -5 25 -25 0 -20 -5 -25 -25
-25 -20 0 -25 -5 -25 -25 0 -24 2 -25 75 -25 73 0 75 -1 75 -24 0 -18 -6 -25
-22 -28 -20 -3 -23 -10 -26 -55 -3 -48 -5 -53 -27 -53 -18 0 -24 6 -27 28 -2
19 -9 27 -23 27 -17 0 -20 -8 -23 -52 l-3 -53 -80 0 c-78 0 -79 0 -79 -25 0
-20 -5 -25 -25 -25 -20 0 -25 5 -25 25 0 23 -3 25 -50 25 -47 0 -50 -2 -50
-25 0 -20 5 -25 25 -25 20 0 25 -5 25 -25 0 -20 -5 -25 -25 -25 -20 0 -25 -5
-25 -25 0 -20 5 -25 25 -25 20 0 25 5 25 25 0 23 3 25 49 25 46 0 50 -2 53
-26 3 -25 6 -27 53 -27 47 0 50 2 53 27 3 20 9 26 28 26 22 0 24 4 24 50 l0
50 50 0 c47 0 50 -2 50 -25 0 -20 -5 -25 -25 -25 -23 0 -25 -3 -25 -49 0 -44
2 -49 25 -53 22 -5 25 -2 25 23 0 28 1 29 55 29 52 0 55 1 55 25 0 21 -5 25
-30 25 -25 0 -30 4 -30 25 0 20 -5 25 -25 25 -20 0 -25 5 -25 25 0 20 5 25 25
25 24 0 25 3 25 56 0 54 0 55 28 52 25 -3 27 -7 30 -55 3 -49 5 -53 28 -53 23
0 24 3 24 55 0 52 1 55 25 55 24 0 25 -3 25 -55 0 -52 1 -55 25 -55 25 0 25 1
25 80 l0 80 55 0 c52 0 55 1 55 25 0 20 5 25 25 25 20 0 25 5 25 25 0 20 5 25
25 25 20 0 25 5 25 25 0 23 3 24 78 27 75 3 77 4 77 28 l0 25 -127 3 -128 3 0
-31 c0 -25 4 -30 25 -30 20 0 25 -5 25 -25 0 -24 -3 -25 -55 -25 -52 0 -55 -1
-55 -25 0 -23 -3 -25 -50 -25 -47 0 -50 -2 -50 -25 0 -23 -3 -25 -50 -25 -47
0 -50 2 -50 25 0 24 -3 25 -55 25 -52 0 -55 1 -55 25 l0 25 105 0 105 0 0 55
c0 52 -2 55 -24 55 -19 0 -25 -6 -28 -27 l-3 -28 -102 -3 -103 -3 0 31 c0 25
-4 30 -25 30 -24 0 -25 -3 -25 -55z m-50 -440 c0 -24 -3 -25 -55 -25 -52 0
-55 1 -55 25 0 24 3 25 55 25 52 0 55 -1 55 -25z"/>
<path d="M1300 1715 l0 -105 25 0 c25 0 25 -1 25 -80 0 -78 -1 -80 -24 -80
-23 0 -25 4 -28 53 -3 45 -6 52 -25 55 -22 3 -23 1 -23 -77 l0 -81 -30 0 -30
0 0 105 0 105 30 0 c25 0 30 4 30 25 0 21 -5 25 -30 25 -25 0 -30 4 -30 25 0
20 -5 25 -25 25 -20 0 -25 -5 -25 -25 0 -20 -5 -25 -25 -25 -20 0 -25 -5 -25
-25 0 -20 5 -25 25 -25 20 0 25 -5 25 -25 0 -23 -3 -25 -50 -25 l-50 0 0 -55
c0 -52 -2 -55 -24 -55 -19 0 -25 6 -28 27 -2 22 -8 28 -28 27 -20 0 -25 -5
-25 -24 0 -20 6 -26 28 -28 25 -3 27 -6 27 -52 0 -46 -2 -49 -27 -52 -20 -2
-29 -9 -31 -25 -3 -20 1 -23 27 -23 26 0 31 -4 31 -25 0 -20 5 -25 25 -25 20
0 25 5 25 25 0 24 2 25 75 25 73 0 75 1 75 25 0 21 5 25 30 25 25 0 30 -4 30
-25 0 -20 5 -25 26 -25 22 0 25 -4 22 -27 -2 -22 -8 -28 -25 -27 -19 1 -23 -4
-23 -27 0 -26 -4 -29 -30 -29 -26 0 -30 -4 -30 -26 0 -22 4 -25 28 -22 19 2
28 9 30 26 3 19 9 22 53 22 46 0 49 -2 49 -25 0 -23 3 -25 50 -25 47 0 50 2
50 25 0 23 -3 25 -51 25 -49 0 -50 1 -47 28 2 19 9 27 23 27 17 0 20 8 23 53
l3 52 -75 0 c-74 0 -76 1 -76 25 0 24 2 25 75 25 l75 0 0 155 0 155 -25 0
c-24 0 -25 3 -25 55 0 52 -1 55 -25 55 l-25 0 0 -105z m-162 -263 c3 -48 5
-52 28 -52 19 0 24 -5 24 -25 0 -20 -5 -25 -25 -25 -20 0 -25 5 -25 25 0 20
-5 25 -25 25 -20 0 -25 -5 -25 -25 0 -20 -5 -25 -25 -25 -20 0 -25 -5 -25 -25
0 -20 -5 -25 -25 -25 -20 0 -25 5 -25 25 0 20 5 25 25 25 20 0 25 5 25 25 0
20 5 25 25 25 23 0 25 3 25 48 0 54 4 61 28 58 13 -2 18 -15 20 -54z"/>
<path d="M1455 1807 c-3 -7 -4 -89 -3 -182 l3 -170 180 0 180 0 0 180 0 180
-178 3 c-139 2 -179 0 -182 -11z m305 -177 l0 -129 -127 2 -128 2 -3 128 -3
127 131 0 130 0 0 -130z"/>
<path d="M1560 1635 l0 -75 75 0 75 0 0 75 0 75 -75 0 -75 0 0 -75z"/>
<path d="M100 1375 c0 -21 5 -25 30 -25 25 0 30 4 30 25 0 21 -5 25 -30 25
-25 0 -30 -4 -30 -25z"/>
<path d="M830 1375 c0 -20 5 -25 25 -25 20 0 25 5 25 25 0 20 -5 25 -25 25
-20 0 -25 -5 -25 -25z"/>
<path d="M1450 1351 c0 -47 2 -50 28 -53 15 -2 26 -6 25 -10 -2 -5 -3 -51 -3
-103 0 -95 0 -95 -25 -95 -20 0 -25 -5 -25 -25 0 -20 -5 -25 -25 -25 -20 0
-25 5 -25 25 0 24 -2 25 -75 25 -73 0 -75 -1 -75 -25 0 -25 -1 -25 -80 -25
l-80 0 0 98 c0 54 -3 101 -6 104 -3 3 -14 4 -25 1 -17 -5 -19 -14 -19 -79 0
-72 -1 -74 -25 -74 -20 0 -25 5 -25 25 0 21 -5 25 -30 25 -25 0 -30 4 -30 24
0 19 6 25 28 28 38 4 44 43 8 50 -31 6 -36 2 -36 -29 0 -18 -5 -23 -25 -23
-24 0 -25 3 -25 55 0 52 -2 55 -24 55 -19 0 -25 -6 -28 -27 -2 -20 -9 -28 -23
-28 -14 0 -21 -8 -23 -27 l-3 -28 -105 0 c-103 0 -104 0 -104 24 0 15 -7 26
-19 29 -25 6 -31 0 -31 -30 0 -22 -3 -23 -80 -23 -79 0 -80 0 -80 -25 0 -20
-5 -25 -25 -25 -23 0 -25 3 -25 48 0 55 -4 62 -31 55 -15 -4 -19 -14 -19 -54
0 -46 -2 -49 -25 -49 -23 0 -25 3 -25 49 0 44 -2 49 -24 53 -21 4 -25 1 -28
-21 -2 -20 -9 -27 -31 -29 -27 -3 -27 -4 -27 -77 0 -73 0 -74 27 -77 20 -2 29
-9 31 -25 3 -17 -2 -22 -25 -25 -22 -2 -28 -8 -28 -28 0 -20 6 -26 27 -28 22
-3 28 -9 28 -28 0 -19 5 -24 25 -24 20 0 25 -5 25 -25 0 -20 5 -25 25 -25 20
0 25 -5 25 -25 0 -20 -5 -25 -25 -25 -20 0 -25 -5 -25 -25 0 -34 -47 -37 -52
-2 -2 16 -11 23 -30 25 -27 3 -28 2 -28 -46 0 -27 2 -51 4 -53 2 -2 27 -2 55
-1 46 4 51 6 51 28 0 19 5 24 25 24 20 0 25 -5 25 -24 0 -18 6 -25 23 -28 16
-2 23 -11 25 -30 3 -24 0 -28 -22 -28 -21 0 -26 5 -26 25 0 20 -5 25 -25 25
-20 0 -25 -5 -25 -25 0 -20 -5 -25 -25 -25 -20 0 -25 -5 -25 -25 0 -21 -5 -25
-30 -25 -25 0 -30 -4 -30 -25 0 -21 5 -25 30 -25 25 0 30 4 30 25 0 20 5 25
25 25 20 0 25 5 25 25 0 20 5 25 25 25 20 0 25 -5 25 -25 0 -20 5 -25 25 -25
20 0 25 5 25 25 0 20 5 25 25 25 23 0 25 -3 25 -50 l0 -50 80 0 80 0 0 -80 c0
-79 0 -80 25 -80 20 0 25 -5 25 -25 0 -20 -5 -25 -25 -25 -23 0 -25 -3 -25
-50 0 -47 2 -50 25 -50 20 0 25 -5 25 -25 0 -20 -5 -25 -25 -25 -21 0 -25 -5
-25 -30 0 -25 4 -30 25 -30 21 0 25 5 25 30 0 25 4 30 24 30 19 0 25 -6 28
-28 3 -25 6 -27 53 -27 47 0 50 1 53 28 3 23 8 28 25 25 16 -2 23 -11 25 -30
3 -22 9 -28 28 -28 20 0 24 5 24 30 0 25 4 30 24 30 19 0 25 -6 28 -28 3 -27
4 -27 78 -27 l75 0 3 52 c3 49 5 53 28 53 19 0 24 -5 24 -25 0 -20 5 -25 25
-25 23 0 25 3 25 50 0 47 2 50 25 50 20 0 25 -5 25 -25 0 -24 3 -25 55 -25 52
0 55 -1 55 -25 0 -23 3 -25 50 -25 49 0 50 -1 50 -30 0 -25 4 -30 25 -30 21 0
25 5 25 31 l0 30 53 -3 c48 -3 52 -5 55 -31 3 -21 9 -27 28 -27 22 0 24 3 24
55 0 52 -1 55 -25 55 -23 0 -25 3 -25 50 0 47 2 50 25 50 20 0 25 5 25 25 0
20 5 25 25 25 24 0 25 -2 25 -75 0 -73 1 -75 25 -75 20 0 25 5 25 25 0 24 3
25 55 25 52 0 55 1 55 25 0 24 -3 25 -55 25 -52 0 -55 1 -55 25 0 20 5 25 25
25 21 0 25 5 25 28 0 27 0 27 -72 27 -72 0 -73 0 -76 27 -3 24 0 28 22 28 21
0 26 5 26 25 0 20 -5 25 -25 25 -20 0 -25 5 -25 25 0 20 5 25 25 25 20 0 25 5
25 25 0 20 5 25 25 25 20 0 25 -5 25 -25 0 -20 5 -25 25 -25 20 0 25 -5 25
-25 0 -20 -5 -25 -25 -25 -20 0 -25 -5 -25 -25 0 -20 5 -25 25 -25 20 0 25 5
25 25 0 21 5 25 30 25 25 0 30 4 30 25 0 21 -5 25 -30 25 -25 0 -30 4 -30 24
0 19 6 25 28 28 25 3 27 6 27 53 0 47 -2 50 -27 53 -22 3 -28 9 -28 28 0 20 5
24 30 24 25 0 30 4 30 25 0 21 -5 25 -30 25 -25 0 -30 4 -30 24 0 19 6 25 28
28 19 2 28 9 30 26 3 19 -1 22 -27 22 -26 0 -31 -4 -31 -25 0 -23 -3 -25 -50
-25 -47 0 -50 2 -50 25 0 20 5 25 25 25 24 0 25 3 25 55 0 52 -1 55 -25 55
-20 0 -25 5 -25 25 0 20 -5 25 -25 25 -20 0 -25 -5 -25 -25 0 -20 -5 -25 -25
-25 -23 0 -25 3 -25 50 l0 50 50 0 50 0 0 80 c0 78 1 80 24 80 23 0 25 -4 28
-52 3 -46 6 -53 25 -56 17 -3 22 2 25 25 2 22 8 28 28 28 24 0 25 2 28 78 l3
77 -56 0 c-52 0 -55 -1 -55 -25 0 -20 -5 -25 -25 -25 -20 0 -25 5 -25 25 0 20
-5 25 -25 25 -23 0 -25 -3 -25 -50 0 -47 -2 -50 -25 -50 -20 0 -25 5 -25 25 0
21 -5 25 -30 25 -25 0 -30 4 -30 25 0 20 -5 25 -25 25 -23 0 -25 -3 -25 -49z
m310 -26 c0 -20 -5 -25 -25 -25 -20 0 -25 5 -25 25 0 20 5 25 25 25 20 0 25
-5 25 -25z m-152 -108 c3 -23 0 -27 -22 -27 -22 0 -26 5 -26 28 0 24 4 28 23
27 16 -1 23 -9 25 -28z m-1038 -77 c0 -47 -2 -50 -25 -50 -23 0 -25 3 -25 50
0 47 2 50 25 50 23 0 25 -3 25 -50z m310 25 c0 -20 5 -25 25 -25 20 0 25 -5
25 -25 0 -20 -5 -25 -25 -25 -20 0 -25 -5 -25 -25 0 -20 5 -25 25 -25 20 0 25
-5 25 -25 0 -23 -3 -25 -50 -25 -49 0 -50 -1 -50 -30 0 -25 4 -30 25 -30 20 0
25 -5 25 -25 0 -20 -5 -25 -25 -25 -20 0 -25 -5 -25 -25 l0 -25 105 0 105 0 0
50 c0 46 -2 50 -24 50 -18 0 -25 -6 -28 -22 -2 -17 -10 -23 -28 -23 -18 0 -26
6 -28 23 -3 19 1 22 27 22 31 0 31 0 31 55 l0 55 50 0 c47 0 50 -2 50 -25 0
-20 -5 -25 -25 -25 -21 0 -25 -5 -25 -30 0 -29 1 -30 50 -30 47 0 50 -2 50
-25 0 -24 3 -25 55 -25 52 0 55 1 55 25 0 20 5 25 25 25 20 0 25 -5 25 -25 0
-20 5 -25 25 -25 20 0 25 -5 25 -25 0 -23 3 -25 50 -25 47 0 50 2 50 25 0 20
5 25 25 25 23 0 24 3 27 78 3 76 3 77 31 80 l28 3 -3 -78 c-3 -77 -3 -78 -30
-81 -22 -3 -28 -9 -28 -28 0 -20 5 -24 30 -24 25 0 30 -4 30 -25 0 -20 5 -25
25 -25 23 0 25 3 25 50 0 47 2 50 25 50 20 0 25 -5 25 -25 0 -23 3 -25 50 -25
47 0 50 -2 50 -25 0 -24 -2 -25 -75 -25 l-75 0 0 -80 c0 -79 0 -80 -25 -80
-20 0 -25 -5 -25 -25 l0 -25 -105 0 -105 0 0 25 c0 23 -3 25 -50 25 l-50 0 0
-50 0 -50 50 0 c47 0 50 -2 50 -25 0 -23 -3 -25 -49 -25 -47 0 -50 -2 -53 -27
-2 -22 -8 -28 -28 -28 -23 0 -25 4 -28 53 l-3 52 -75 0 c-72 0 -74 1 -74 25 0
20 -5 25 -25 25 -20 0 -25 -5 -25 -25 0 -21 -5 -25 -30 -25 -25 0 -30 4 -30
25 0 24 -2 25 -75 25 -73 0 -75 1 -75 25 0 20 -5 25 -25 25 -20 0 -25 -5 -25
-25 0 -21 -5 -25 -30 -25 l-30 0 0 -75 0 -75 70 0 c39 0 73 0 78 0 4 0 8 11
10 25 l3 25 129 0 129 0 3 -27 c2 -20 9 -28 23 -28 17 0 20 -8 23 -52 l3 -53
-50 0 c-48 0 -51 -2 -51 -25 0 -20 -5 -25 -25 -25 -20 0 -25 -5 -25 -25 0 -25
-1 -25 -80 -25 l-80 0 0 50 c0 47 -2 50 -25 50 -20 0 -25 5 -25 25 0 20 -5 25
-25 25 -20 0 -25 -5 -25 -25 0 -21 -5 -25 -30 -25 -25 0 -30 -4 -30 -25 0 -24
3 -25 55 -25 52 0 55 -1 55 -25 0 -24 -3 -25 -55 -25 -52 0 -55 1 -55 25 0 23
-3 25 -50 25 -47 0 -50 2 -50 25 0 23 3 25 50 25 l50 0 0 50 c0 47 -2 50 -25
50 -20 0 -25 -5 -25 -25 0 -20 -5 -25 -26 -25 -22 0 -25 4 -22 28 2 15 9 28
16 28 6 1 17 2 22 3 6 0 10 24 10 51 0 47 -2 50 -25 50 -23 0 -25 3 -25 50 0
47 -2 50 -25 50 -20 0 -25 -5 -25 -25 0 -23 -3 -25 -48 -25 -27 0 -51 3 -54 6
-12 12 5 43 26 46 13 2 22 11 24 26 3 18 -1 22 -22 22 -21 0 -26 -5 -26 -25 0
-21 -5 -25 -31 -25 -27 0 -30 3 -27 25 2 14 8 26 13 26 23 2 45 21 43 37 -2
12 5 18 25 20 21 3 27 9 27 28 0 19 -5 24 -25 24 -20 0 -25 5 -25 25 0 21 -5
25 -30 25 -25 0 -30 4 -30 25 0 21 5 25 30 25 25 0 30 -4 30 -25 0 -24 2 -25
75 -25 73 0 75 -1 75 -25 0 -20 -5 -25 -25 -25 -20 0 -25 -5 -25 -25 0 -20 5
-25 25 -25 24 0 25 -3 25 -55 l0 -55 81 0 80 0 -3 28 c-2 21 -8 27 -28 27 -20
0 -26 6 -28 28 -3 21 -9 27 -28 27 -24 0 -24 1 -24 100 l0 100 -25 0 c-20 0
-25 -5 -25 -25 0 -26 0 -26 -77 -23 -70 3 -78 5 -78 23 0 12 -9 21 -25 25 -18
4 -25 13 -25 30 0 17 7 26 25 30 16 4 25 13 25 25 0 30 49 28 53 -2 3 -19 -1
-23 -22 -23 -22 0 -26 -4 -26 -30 0 -29 1 -30 50 -30 l50 0 0 55 c0 52 1 55
25 55 20 0 25 -5 25 -25 0 -23 3 -25 49 -25 l50 0 3 -52 c3 -49 5 -53 31 -56
27 -3 27 -2 27 52 l0 56 50 0 c47 0 50 2 50 25 l0 25 -105 0 -105 0 0 50 c0
47 2 50 25 50 20 0 25 -5 25 -25 0 -25 1 -25 80 -25 79 0 80 0 80 25 0 20 -5
25 -25 25 -20 0 -25 5 -25 25 0 23 3 25 50 25 47 0 50 -2 50 -25z m-410 -50
c0 -24 -3 -25 -55 -25 -52 0 -55 1 -55 25 0 24 3 25 55 25 52 0 55 -1 55 -25z
m-160 -50 c0 -20 -5 -25 -25 -25 -24 0 -25 -3 -25 -55 0 -52 1 -55 25 -55 20
0 25 -5 25 -25 0 -23 -3 -25 -50 -25 -47 0 -50 2 -50 25 0 20 -5 25 -25 25
-21 0 -25 5 -25 30 0 25 4 30 25 30 20 0 25 5 25 25 0 20 5 25 25 25 20 0 25
5 25 25 0 20 5 25 25 25 20 0 25 -5 25 -25z m1040 -50 c0 -23 -3 -25 -50 -25
-47 0 -50 2 -50 25 0 23 3 25 50 25 47 0 50 -2 50 -25z m-990 -260 c0 -23 -3
-25 -50 -25 -47 0 -50 2 -50 25 0 23 3 25 50 25 47 0 50 -2 50 -25z m1400 -54
c0 -28 -1 -29 -47 -27 -44 1 -48 3 -51 29 -3 26 -2 27 47 27 50 0 51 -1 51
-29z m-980 -206 c0 -20 -5 -25 -25 -25 -20 0 -25 5 -25 25 0 20 5 25 25 25 20
0 25 -5 25 -25z m778 -52 l-3 -78 -77 -3 -78 -3 0 81 0 80 80 0 81 0 -3 -77z
m-258 -108 l0 -25 100 0 100 0 0 -25 c0 -24 -2 -25 -75 -25 -73 0 -75 -1 -75
-25 0 -20 -5 -25 -25 -25 -20 0 -25 5 -25 25 0 20 -5 25 -25 25 -20 0 -25 5
-25 25 0 21 -5 25 -30 25 -25 0 -30 4 -30 25 0 24 3 25 55 25 52 0 55 -1 55
-25z m150 -150 c0 -20 -5 -25 -25 -25 -20 0 -25 5 -25 25 0 20 5 25 25 25 20
0 25 -5 25 -25z"/>
<path d="M780 905 c0 -20 -5 -25 -25 -25 -20 0 -25 -5 -25 -25 0 -21 -5 -25
-30 -25 -29 0 -30 -1 -30 -49 l0 -50 52 -3 c46 -3 53 -6 58 -28 4 -16 13 -25
25 -25 14 0 21 -8 23 -27 3 -22 9 -28 27 -28 18 0 24 6 27 28 2 15 9 28 16 28
6 1 17 2 22 3 6 0 10 12 10 26 0 23 -3 25 -50 25 -47 0 -50 2 -50 25 0 23 -3
25 -50 25 -47 0 -50 2 -50 25 0 20 5 25 25 25 20 0 25 5 25 25 0 20 5 25 25
25 20 0 25 5 25 25 0 20 -5 25 -25 25 -20 0 -25 -5 -25 -25z"/>
<path d="M1250 855 c0 -21 -5 -25 -30 -25 -25 0 -30 -4 -30 -25 0 -20 -5 -25
-25 -25 -20 0 -25 5 -25 25 0 20 -5 25 -25 25 -20 0 -25 -5 -25 -25 0 -20 -5
-25 -25 -25 -24 0 -25 -3 -25 -53 0 -49 2 -54 23 -52 19 1 22 8 25 53 3 48 5
52 28 52 19 0 24 -5 24 -25 0 -20 5 -25 24 -25 19 0 25 -6 28 -27 2 -22 8 -28
28 -27 20 0 25 5 25 24 0 20 -6 26 -27 28 -22 3 -28 9 -28 28 0 20 5 24 30 24
25 0 30 4 30 25 0 20 5 25 25 25 20 0 25 -5 25 -25 0 -20 5 -25 25 -25 20 0
25 5 25 25 0 20 -5 25 -25 25 -20 0 -25 5 -25 25 0 20 -5 25 -25 25 -20 0 -25
-5 -25 -25z"/>
<path d="M1450 805 c0 -20 -5 -25 -25 -25 -20 0 -25 -5 -25 -25 0 -23 -3 -25
-50 -25 -48 0 -50 -1 -50 -27 l0 -28 75 3 75 4 0 49 c0 46 2 49 25 49 20 0 25
5 25 25 0 20 -5 25 -25 25 -20 0 -25 -5 -25 -25z"/>
<path d="M470 706 c0 -15 7 -26 19 -29 25 -6 31 0 31 30 0 18 -5 23 -25 23
-20 0 -25 -5 -25 -24z"/>
<path d="M1504 717 c-3 -8 -4 -20 -2 -28 3 -12 -2 -15 -38 -18 -10 -1 -14 -9
-12 -23 3 -20 10 -23 56 -26 l53 -3 -3 53 c-3 46 -6 53 -26 56 -12 2 -24 -3
-28 -11z"/>
<path d="M953 672 c-20 -3 -23 -9 -23 -53 0 -48 1 -49 30 -49 29 0 30 1 30 49
0 54 -4 59 -37 53z"/>
<path d="M1090 595 c0 -20 5 -25 25 -25 20 0 25 5 25 25 0 20 -5 25 -25 25
-20 0 -25 -5 -25 -25z"/>
<path d="M935 412 c-3 -3 -5 -16 -5 -29 0 -18 -5 -23 -25 -23 -20 0 -25 -5
-25 -25 0 -20 5 -25 25 -25 20 0 25 5 25 25 0 21 5 25 30 25 25 0 30 -4 30
-25 0 -20 5 -25 25 -25 20 0 25 5 25 25 0 20 -5 25 -24 25 -19 0 -25 6 -28 27
-2 19 -9 27 -26 28 -12 1 -24 -1 -27 -3z"/>
<path d="M1454 455 c-9 -23 0 -38 24 -40 18 -1 22 4 22 27 0 21 -5 28 -20 28
-11 0 -23 -7 -26 -15z"/>
<path d="M1710 1115 c0 -20 5 -25 25 -25 20 0 25 5 25 25 0 20 -5 25 -25 25
-20 0 -25 -5 -25 -25z"/>
<path d="M105 457 c-3 -7 -4 -89 -3 -182 l3 -170 180 0 180 0 0 180 0 180
-178 3 c-139 2 -179 0 -182 -11z m313 -169 l3 -128 -130 0 -131 0 0 130 0 129
128 -2 127 -2 3 -127z"/>
<path d="M210 285 l0 -75 75 0 75 0 0 75 0 75 -75 0 -75 0 0 -75z"/>
<path d="M1767 204 c-4 -4 -7 -16 -7 -26 0 -13 8 -18 31 -18 26 0 30 3 27 23
-3 22 -36 36 -51 21z"/>
<path d="M1194 146 c-10 -26 4 -48 28 -44 17 2 23 10 23 28 0 18 -6 26 -23 28
-13 2 -25 -3 -28 -12z"/>
<path d="M1660 130 c0 -25 4 -30 25 -30 21 0 25 5 25 30 0 25 -4 30 -25 30
-21 0 -25 -5 -25 -30z"/>
</g>
</svg>
