<svg width="602" height="357" viewBox="0 0 602 357" fill="none" xmlns="http://www.w3.org/2000/svg">
<path d="M21.4 225.8H16.5V217.5H40.8C50.8 217.5 57.7 224.5 57.7 234.8C57.7 245.1 50.7 252.3 40.8 252.3H31.1V270.6H21.3V225.8H21.4ZM39 243.9C44.5 243.9 47.7 240.3 47.7 234.8C47.7 229.3 44.6 225.8 39.2 225.8H31.2V243.9H39Z" fill="#216F48"/>
<path d="M66.7 225.8H61.8V217.5H85.6C95.3 217.5 102.1 223.5 102.1 233.5C102.1 243.1 95.5 247.1 93.3 247.5V247.6C93.3 247.6 94.9 248.3 95.9 250.3L101.1 260.6C101.9 262.2 103.2 262.3 104.8 262.3H105.8V270.6H100.6C96.6 270.6 94.9 270 93.2 266.6L86.4 253.2C85.3 251.1 84.2 250.7 81.4 250.7H76.5V270.5H66.7V225.8ZM84.2 242.4C89.1 242.4 92.1 239.3 92.1 234C92.1 228.8 89.2 225.8 84.4 225.8H76.5V242.4H84.2Z" fill="#216F48"/>
<path d="M114 225.8H109.1V217.5H141.2C144.7 217.5 146.3 219.1 146.3 222.6V230.7H137.4V227.5C137.4 226.5 136.8 225.9 135.8 225.9H123.8V239.8H141V248.1H123.8V260.8C123.8 261.8 124.4 262.4 125.4 262.4H137.7C138.7 262.4 139.3 261.8 139.3 260.8V257.6H148.2V265.7C148.2 269.3 146.6 270.8 143.1 270.8H119C115.4 270.8 113.9 269.3 113.9 265.7V225.8H114Z" fill="#216F48"/>
<path d="M157.8 256.4C157.8 256.4 163.3 262.7 170.7 262.7C174.7 262.7 178.3 260.5 178.3 256.4C178.3 247.3 153.3 248.1 153.3 231.5C153.3 222.9 160.8 216.5 171 216.5C177.2 216.5 186.8 219.4 186.8 227V231.9H178V229.5C178 227 174.5 225.4 171 225.4C166.5 225.4 163.2 227.7 163.2 231.1C163.2 240.2 188.2 238.4 188.2 255.8C188.2 264.3 181.7 271.4 170.5 271.4C158.7 271.4 152.2 263.2 152.2 263.2L157.8 256.4Z" fill="#216F48"/>
<path d="M198.3 225.8H193.4V217.5H216.4C226 217.5 232.9 222.4 232.9 231.2C232.9 237.1 229.7 240.9 226.5 242.6V242.7C232.3 244.4 235 249.8 235 255.2C235 265.8 226.5 270.6 216.7 270.6H203.4C199.9 270.6 198.3 269.1 198.3 265.5V225.8ZM216.5 239.2C220.6 239.2 222.9 236.2 222.9 232.4C222.9 228.6 220.7 225.8 216.3 225.8H208.1V239.2H216.5ZM209.7 262.4H217.3C222.1 262.4 224.8 259.2 224.8 254.7C224.8 250.3 222 247.1 217.3 247.1H208V260.8C208.1 261.8 208.7 262.4 209.7 262.4Z" fill="#216F48"/>
<path d="M240.9 262.4H246.2V225.9H240.9V217.6H260.8V225.9H255.5V262.4H260.8V270.7H240.9V262.4Z" fill="#216F48"/>
<path d="M283.2 225.8H275C274 225.8 273.4 226.4 273.4 227.4V230.6H264.8V222.2C264.8 218.7 266 217.4 269.6 217.4H306.7C310.3 217.4 311.5 218.7 311.5 222.2V230.6H302.9V227.4C302.9 226.4 302.3 225.8 301.3 225.8H293V270.7H283.2V225.8Z" fill="#216F48"/>
<path d="M319.9 225.8H315V217.5H347.1C350.6 217.5 352.2 219.1 352.2 222.6V230.7H343.3V227.5C343.3 226.5 342.7 225.9 341.7 225.9H329.7V239.8H347V248.1H329.8V260.8C329.8 261.8 330.4 262.4 331.4 262.4H343.7C344.7 262.4 345.3 261.8 345.3 260.8V257.6H354.2V265.7C354.2 269.3 352.6 270.8 349.1 270.8H325C321.4 270.8 319.9 269.3 319.9 265.7V225.8Z" fill="#216F48"/>
<path d="M363.2 225.8H358.3V217.5H382.1C391.8 217.5 398.6 223.5 398.6 233.5C398.6 243.1 392 247.1 389.8 247.5V247.6C389.8 247.6 391.4 248.3 392.4 250.3L397.6 260.6C398.4 262.2 399.7 262.3 401.3 262.3H402.3V270.6H397.1C393.1 270.6 391.4 270 389.7 266.6L382.9 253.2C381.8 251.1 380.7 250.7 377.9 250.7H373V270.5H363.2V225.8ZM380.8 242.4C385.7 242.4 388.7 239.3 388.7 234C388.7 228.8 385.8 225.8 381 225.8H373V242.4H380.8Z" fill="#216F48"/>
<path d="M406 262.4H411.3V225.9H406V217.6H425.9V225.9H420.6V262.4H425.9V270.7H406V262.4Z" fill="#216F48"/>
<path d="M429.6 262.4H430.8C432.1 262.4 432.7 262.1 433.1 260.8L448.9 217.6H459.2L474.9 260.8C475.3 262.1 475.9 262.4 477.2 262.4H478.4V270.7H472.6C468.9 270.7 467.5 269.7 466.3 266.4L463 257H445L441.7 266.3C440.5 269.7 439.2 270.6 435.5 270.6H429.6V262.4ZM460.7 248.9L456.1 235.6C455.1 232.7 454 227.7 454 227.7H453.9C453.9 227.7 452.8 232.7 451.8 235.6L447.2 248.9H460.7Z" fill="#216F48"/>
<path d="M481.7 262.4H484.9C485.9 262.4 486.5 261.8 486.5 260.8V217.6H495.3L515.4 247C517.5 250.1 519.8 254.5 519.8 254.5H520C520 254.5 519.5 250.1 519.5 247V222.7C519.5 219.2 521 217.6 524.6 217.6H534.2V225.9H531C530 225.9 529.4 226.5 529.4 227.5V270.7H520.6L500.4 241.3C498.3 238.3 496 233.8 496 233.8H495.9C495.9 233.8 496.4 238.2 496.4 241.3V265.6C496.4 269.2 494.9 270.7 491.3 270.7H481.7V262.4Z" fill="#216F48"/>
<path d="M537.7 262.4H538.9C540.2 262.4 540.8 262.1 541.2 260.8L557 217.6H567.3L583 260.8C583.4 262.1 584 262.4 585.3 262.4H586.5V270.7H580.7C577 270.7 575.6 269.7 574.4 266.4L571.1 257.1H553.1L549.8 266.4C548.6 269.8 547.3 270.7 543.6 270.7H537.7V262.4ZM568.8 248.9L564.2 235.6C563.2 232.7 562.1 227.7 562.1 227.7H562C562 227.7 560.9 232.7 559.9 235.6L555.3 248.9H568.8Z" fill="#216F48"/>
<path d="M12.4 182.1H16.1V156.6H12.4V150.8H26.3V156.6H22.6V182.1H26.3V187.9H12.4V182.1Z" fill="#216F48"/>
<path d="M41.7 160.7C47.9 160.7 49.9 164.5 49.9 164.5H50C50 164.5 50 164.2 50 163.8C50 162.6 50.8 161.3 52.9 161.3H59.1V166.9H57.1C56.4 166.9 56 167.3 56 167.9V186.2C56 195.3 48.9 198.8 42 198.8C38.7 198.8 35.1 197.9 32.6 196.5L34.6 191.3C34.6 191.3 37.9 193.1 42 193.1C46 193.1 49.5 191.4 49.5 186.6V185.3C49.5 184.7 49.6 183.9 49.6 183.9H49.5C47.9 186.1 45.6 187.3 42.1 187.3C34.5 187.3 30.1 181.1 30.1 173.8C29.9 166.6 34.1 160.7 41.7 160.7ZM49.5 174C49.5 167.9 46.5 166.3 42.9 166.3C38.9 166.3 36.7 169.2 36.7 173.7C36.7 178.3 39 181.8 43.3 181.8C46.5 181.8 49.5 180 49.5 174Z" fill="#216F48"/>
<path d="M64.5 168.1C64.5 167.3 64.1 167 63.4 167H61.3V161.4H67.4C69.7 161.4 70.9 162.4 70.9 164.6V166.2C70.9 167.2 70.8 167.9 70.8 167.9H70.9C72.1 164.1 75.3 161.1 79.4 161.1C80 161.1 80.6001 161.2 80.6001 161.2V167.7C80.6001 167.7 79.9 167.6 79 167.6C76.2 167.6 72.9 169.2 71.7 173.2C71.3 174.5 71.1001 176 71.1001 177.5V188H64.5V168.1Z" fill="#216F48"/>
<path d="M95.9 160.7C103.5 160.7 107.7 166.3 107.7 173.3C107.7 174.1 107.5 175.8 107.5 175.8H89.1C89.6 180.5 93.1 182.9 97.1 182.9C101.4 182.9 104.6 179.9 104.6 179.9L107.4 184.5C107.4 184.5 103.3 188.5 96.7 188.5C87.9 188.5 82.4 182.1 82.4 174.6C82.4 166.4 87.9 160.7 95.9 160.7ZM100.9 171.2C100.8 168 98.6 165.8 95.9 165.8C92.5 165.8 90.1 167.8 89.4 171.2H100.9Z" fill="#216F48"/>
<path d="M109.9 193.1C111.8 193.1 115.2 192.5 115.2 188.2V168.1C115.2 167.3 114.8 167 114.1 167H112V161.4H118.3C120.8 161.4 121.8 162.5 121.8 164.9V188.7C121.8 197.6 114.3 198.7 110.7 198.7C109.5 198.7 108.7 198.5 108.7 198.5V193C108.8 193 109.2 193.1 109.9 193.1ZM115.5 150.9H121.3V157H115.5V150.9Z" fill="#216F48"/>
<path d="M143.2 171.2H144V171C144 167.2 142.5 165.8 139.1 165.8C137.9 165.8 135.6 166.1 135.6 167.6V169H129.4V166.2C129.4 161.2 136.4 160.7 139.2 160.7C148.1 160.7 150.7 165.3 150.7 171.3V181.2C150.7 181.9 151.1 182.3 151.8 182.3H153.9V187.9H148C145.5 187.9 144.6 186.5 144.6 185C144.6 184.3 144.7 183.9 144.7 183.9H144.6C144.6 183.9 142.6 188.6 136.6 188.6C131.9 188.6 127.5 185.6 127.5 180.3C127.4 171.9 138.9 171.2 143.2 171.2ZM138.1 183.4C141.6 183.4 144.2 179.6 144.2 176.4V175.8H143C139.6 175.8 134.1 176.3 134.1 180C134.1 181.7 135.4 183.4 138.1 183.4Z" fill="#216F48"/>
<path d="M382.5 54.6C382.5 54.2 382.3 53.7 381.9 53.4C350.1 30.6 307.7 16.6 261.1 16.6C256 16.6 251 16.8 246 17.1C245.5 17.1 245 17.3 244.7 17.6C232.2 27.9 221.7 39.7 213.4 52.5C212.6 53.7 214 55 215.7 54.7C230.2 51.7 245.4 50.1 261 50.1C306.3 50.1 347.7 63.3 379.1 85" fill="#36A268"/>
<path d="M382.7 98.8C351 76.1 308.6 62.2 262.2 62.2C242.4 62.2 223.3 64.8 205.5 69.4C204.7 69.6 204 70.1 203.8 70.8C200.2 79.4 197.6 88.3 196.1 97.5C195.8 99.1 197.8 100.3 199.7 99.7C219.1 94 240.2 90.9 262.2 90.9C307 90.9 347.8 103.8 379.1 125" fill="#278756"/>
<path d="M190.3 113.2C190.3 113.3 190.3 113.3 190.3 113.2C190.3 124 191.7 134.5 194.5 144.6C195 146.3 196.7 147.3 198.2 146.7C215.8 139.5 235.9 135.3 257.2 135.3C305.1 135.3 346.8 156 368.3 186.6C368.8 187.4 369.7 187.8 370.6 187.8H379.3V140C347.5 116.9 304.8 102.8 257.9 102.8C234 102.9 211.1 106.6 190.3 113.2Z" fill="#216F48"/>
<path d="M375.8 54.6C375.8 54.2 376 53.7 376.4 53.4C408.2 30.6 450.6 16.6 497.2 16.6C502.3 16.6 507.3 16.8 512.3 17.1C512.8 17.1 513.3 17.3 513.6 17.6C526.1 27.9 536.6 39.7 544.9 52.5C545.7 53.7 544.3 55 542.6 54.7C528.1 51.7 512.9 50.1 497.3 50.1C452 50.1 410.6 63.3 379.2 85" fill="#36A268"/>
<path d="M375.6 98.8C407.3 76.1 449.7 62.2 496.1 62.2C515.9 62.2 535 64.8 552.8 69.4C553.6 69.6 554.3 70.1 554.5 70.8C558.1 79.4 560.7 88.3 562.2 97.5C562.5 99.1 560.5 100.3 558.6 99.7C539.2 94 518.1 90.9 496.1 90.9C451.3 90.9 410.5 103.8 379.2 125" fill="#278756"/>
<path d="M568 113.2C568 113.3 568 113.3 568 113.2C568 124 566.6 134.5 563.8 144.6C563.3 146.4 561.6 147.3 560 146.7C542.4 139.5 522.3 135.4 501.1 135.4C453.2 135.4 411.5 156.1 390 186.7C389.5 187.5 388.6 187.9 387.7 187.9H379V140.1C410.8 117 453.5 102.9 500.4 102.9C524.3 102.9 547.1 106.6 568 113.2Z" fill="#216F48"/>
<path d="M228.4 297.6H223V288.5H249.6C260.5 288.5 268.1 296.1 268.1 307.4C268.1 318.7 260.5 326.6 249.6 326.6H239V346.7H228.3V297.6H228.4ZM247.7 317.4C253.8 317.4 257.2 313.5 257.2 307.4C257.2 301.4 253.8 297.6 247.9 297.6H239.1V317.4H247.7Z" fill="#216F48"/>
<path d="M278 297.6H272.7V288.5H307.9C311.8 288.5 313.5 290.2 313.5 294.1V303H303.7V299.5C303.7 298.4 303 297.7 301.9 297.7H288.8V312.9H307.7V322H288.8V335.9C288.8 337 289.5 337.7 290.6 337.7H304C305.1 337.7 305.8 337 305.8 335.9V332.4H315.6V341.3C315.6 345.2 313.9 346.9 310 346.9H283.6C279.7 346.9 278 345.3 278 341.3V297.6Z" fill="#216F48"/>
<path d="M320 337.6H323.5C324.6 337.6 325.3 336.9 325.3 335.8V288.5H335L357.1 320.7C359.4 324.1 361.9 328.9 361.9 328.9H362.1C362.1 328.9 361.5 324.1 361.5 320.7V294C361.5 290.1 363.1 288.4 367.1 288.4H377.6V297.5H374C372.9 297.5 372.2 298.2 372.2 299.3V346.6H362.6L340.5 314.5C338.2 311.2 335.7 306.3 335.7 306.3H335.5C335.5 306.3 336.1 311.1 336.1 314.5V341.1C336.1 345 334.5 346.7 330.5 346.7H320V337.6Z" fill="#216F48"/>
<path d="M388.5 299.4C388.5 298.3 387.8 297.6 386.7 297.6H383.2V288.5H393.7C397.6 288.5 399.3 290.2 399.3 294.1V313.2H425V294C425 290.1 426.7 288.4 430.6 288.4H441.1V297.5H437.6C436.5 297.5 435.8 298.2 435.8 299.3V346.6H425.1V322.2H399.4V346.6H388.7V299.4H388.5Z" fill="#216F48"/>
<path d="M444.6 337.6H445.9C447.3 337.6 447.9 337.3 448.4 335.8L465.7 288.5H477L494.2 335.8C494.7 337.3 495.3 337.6 496.7 337.6H498V346.7H491.6C487.5 346.7 486 345.6 484.7 341.9L481.1 331.7H461.4L457.8 341.9C456.5 345.6 455.1 346.7 451 346.7H444.5V337.6H444.6ZM478.7 322.9L473.7 308.3C472.6 305.1 471.4 299.6 471.4 299.6H471.2C471.2 299.6 470 305.1 468.9 308.3L463.9 322.9H478.7Z" fill="#216F48"/>
<path d="M168.2 308.5C173.6 308.5 175.4 312.1 175.4 312.1H175.5C175.5 312.1 175.4 311.4 175.4 310.5V304.6C175.4 303.9 175 303.6 174.4 303.6H172.5V299.8H177C179.1 299.8 180 300.7 180 302.8V327.7C180 328.4 180.4 328.7 181 328.7H182.9V332.5H178.6C176.6 332.5 175.7 331.6 175.7 330C175.7 329.3 175.7 328.8 175.7 328.8H175.6C175.6 328.8 173.7 333.1 167.9 333.1C161.5 333.1 157.6 328.1 157.6 320.8C157.6 313.3 162 308.5 168.2 308.5ZM175.6 320.7C175.6 316.5 173.4 312.4 168.9 312.4C165.2 312.4 162.2 315.5 162.2 320.8C162.2 325.9 164.9 329.2 168.8 329.2C172.3 329.2 175.6 326.7 175.6 320.7Z" fill="#216F48"/>
<path d="M199.8 317.9H200.8V317.7C200.8 313.6 199.3 312.1 195.6 312.1C194.5 312.1 191.7 312.4 191.7 313.9V315.2H187.5V312.9C187.5 309.1 193.3 308.5 195.6 308.5C203.2 308.5 205.2 312.5 205.2 317.7V327.7C205.2 328.4 205.6 328.7 206.2 328.7H208.1V332.5H203.9C201.8 332.5 201 331.5 201 329.8C201 329 201.1 328.4 201.1 328.4H201C201 328.4 199.1 333 193.5 333C189.5 333 185.5 330.5 185.5 325.9C185.7 318.4 195.9 317.9 199.8 317.9ZM194.6 329.5C198.4 329.5 200.9 325.5 200.9 322V321.2H199.7C196.3 321.2 190.2 321.4 190.2 325.7C190.2 327.6 191.7 329.5 194.6 329.5Z" fill="#216F48"/>
</svg>
