<svg width="107" height="51" viewBox="0 0 107 51" fill="none" xmlns="http://www.w3.org/2000/svg">
<g clip-path="url(#clip0_685_912)">
<path d="M0 50.6465H18.4685V46.9341H4.5189C4.5189 46.9341 4.45341 46.8734 4.45341 46.8679V35.0238C4.45341 35.0238 4.51344 34.9575 4.5189 34.9575H16.9841V31.2452H4.5189C4.5189 31.2452 4.45341 31.1845 4.45341 31.1789V19.6222H18.4685V15.8657H0V50.6465Z" fill="white"/>
<path d="M23.1406 19.6222H32.5277V50.6906L37.0248 50.6464V19.6222H46.3682V15.9099H23.1406V19.6222Z" fill="white"/>
<path d="M103.869 18.0091C100.034 14.538 94.5258 15.3501 89.7668 15.247V0H82.6937V15.9099L51.8691 15.8657V50.6464H70.3377V46.9341H56.3662V34.9575H68.8532V31.2452H56.3662V20.5061H56.3917V19.6756H89.7668V19.0035H95.9448C99.494 19.1876 102.179 20.8836 102.387 24.7248C102.619 29.0282 100.431 31.4515 96.2067 31.7314H89.7668V21.3494H82.6937V51H89.7668V35.4879C94.051 35.3571 98.8173 36.1047 102.643 33.7385C107.962 30.4479 108.457 22.1615 103.869 18.0091Z" fill="white"/>
</g>
<defs>
<clipPath id="clip0_685_912">
<rect width="107" height="51" fill="white"/>
</clipPath>
</defs>
</svg>
